<svg version="1.1" id="Layer_1" xmlns="http://www.w3.org/2000/svg" xmlns:xlink="http://www.w3.org/1999/xlink" x="0px" y="0px"
	 width="100%" viewBox="0 0 1000 493" enable-background="new 0 0 1000 493" xml:space="preserve">
<path fill="#1D1A18" opacity="0.000000" stroke="none" 
	d="
M595.000000,494.000000 
	C396.666656,494.000000 198.833328,494.000000 1.000000,494.000000 
	C1.000000,329.666656 1.000000,165.333328 1.000000,1.000000 
	C334.333344,1.000000 667.666687,1.000000 1001.000000,1.000000 
	C1001.000000,165.333328 1001.000000,329.666656 1001.000000,494.000000 
	C865.833313,494.000000 730.666687,494.000000 595.000000,494.000000 
M490.683105,277.723633 
	C479.647583,277.256287 470.170837,279.772675 465.211029,291.918304 
	C461.964905,283.852234 456.545197,278.948029 448.691833,278.281006 
	C440.596008,277.593414 432.286865,277.322113 424.286041,278.426331 
	C419.756958,279.051392 415.465729,282.524597 411.456635,285.281189 
	C409.664764,286.513275 408.830200,289.137634 407.324860,291.501190 
	C403.958221,283.149017 398.021057,278.634064 389.691071,278.077606 
	C382.397705,277.590363 375.021912,277.614746 367.726288,278.087860 
	C360.477173,278.557983 354.811127,282.161652 351.360199,288.814148 
	C350.952789,289.599457 350.314911,290.265259 349.681946,291.124878 
	C344.355560,281.283173 339.100891,278.032990 328.341278,277.753632 
	C325.676758,277.684448 323.005463,277.820129 320.343750,277.707855 
	C308.607300,277.212708 297.698761,278.437958 292.202484,291.890839 
	C287.710907,280.953674 279.581421,277.608521 269.422302,277.722443 
	C266.589813,277.754211 263.751617,277.834503 260.924713,277.704163 
	C249.560715,277.180206 239.653397,279.470581 234.536728,291.869781 
	C231.207596,283.505798 225.519409,278.789429 217.396317,278.176697 
	C209.618164,277.589935 201.710724,277.515991 193.948746,278.209229 
	C183.398514,279.151520 176.916840,286.854248 176.823929,297.413757 
	C176.744766,306.411499 176.761429,315.410736 176.817581,324.408844 
	C176.888504,335.775024 183.675751,343.251495 195.005356,344.210480 
	C199.476608,344.588989 203.999527,344.308167 208.491882,344.496063 
	C219.739609,344.966553 229.620621,342.818787 234.657166,330.417145 
	C239.081772,341.221039 247.196030,344.603607 257.377594,344.477264 
	C260.376617,344.440033 263.380554,344.374481 266.375244,344.494965 
	C277.585968,344.945984 287.382324,342.717896 292.280640,330.342438 
	C296.695251,341.268646 304.932770,344.653656 315.266296,344.479675 
	C318.264923,344.429199 321.269135,344.375061 324.263916,344.494598 
	C335.357513,344.937408 345.009613,342.639618 349.948212,330.240875 
	C354.411804,341.506897 362.817261,344.637939 373.124573,344.482971 
	C376.789795,344.427856 380.458099,344.404694 384.122253,344.487701 
	C394.654449,344.726288 403.139587,341.466766 407.534149,330.357513 
	C410.994446,338.861938 416.950165,343.610046 425.507874,344.152588 
	C432.805786,344.615295 440.180634,344.608612 447.477478,344.133820 
	C454.726135,343.662170 460.418091,340.107880 463.794708,333.376312 
	C464.181152,332.605865 464.792084,331.947968 465.485260,330.976959 
	C469.614990,340.727509 477.102722,344.365295 486.758881,344.455231 
	C490.257965,344.487823 493.761566,344.364441 497.256104,344.496674 
	C508.336487,344.915955 517.991821,342.650757 522.869568,330.333252 
	C526.276550,338.773010 532.011902,343.430664 540.095398,344.048096 
	C547.874634,344.642303 555.780579,344.694885 563.549316,344.031189 
	C573.726624,343.161682 580.430786,335.791748 580.692932,325.830078 
	C580.951416,316.005463 580.865417,306.166748 580.705811,296.337860 
	C580.591003,289.269806 577.533936,283.185516 570.976135,280.672974 
	C558.329590,275.827515 545.199585,275.952148 532.514709,280.701080 
	C529.424438,281.857971 527.229431,285.507874 524.746765,288.128998 
	C523.911499,289.010834 523.460510,290.256653 522.640564,291.669159 
	C518.818054,281.906738 511.622223,278.061310 502.126099,277.784698 
	C498.629425,277.682800 495.128113,277.739258 490.683105,277.723633 
M710.511047,331.377502 
	C714.701355,340.718933 722.250427,344.508484 732.126038,344.469269 
	C735.623840,344.455383 739.125549,344.369110 742.618835,344.496826 
	C753.577698,344.897430 763.007812,342.442871 767.850403,330.382477 
	C771.304871,338.773926 777.026672,343.444641 785.104553,344.053925 
	C792.881409,344.640472 800.785400,344.708679 808.548218,344.029297 
	C819.103210,343.105499 825.575378,335.465424 825.704956,324.832001 
	C825.814514,315.838867 825.793701,306.842743 825.711731,297.849030 
	C825.608521,286.523102 818.795410,278.869812 807.482544,278.053711 
	C800.361938,277.540009 793.160095,277.661835 786.021729,278.026459 
	C779.356140,278.366913 773.923462,281.467804 770.231873,287.207001 
	C769.472473,288.387573 768.903625,289.690674 767.863953,291.664520 
	C762.777283,281.250000 755.631592,277.884674 746.613708,277.759796 
	C742.950012,277.709076 739.281067,277.841156 735.621643,277.702454 
	C724.605530,277.284912 715.168091,279.823334 710.125366,291.980499 
	C705.521667,280.250092 696.634827,277.450439 686.047791,277.713074 
	C683.217896,277.783264 680.381287,277.815704 677.553833,277.706726 
	C666.572510,277.283569 657.369446,280.117065 652.507202,291.887604 
	C649.220459,283.700653 643.648438,278.838745 635.547424,278.200531 
	C627.775513,277.588257 619.873230,277.521484 612.109863,278.179199 
	C601.369995,279.089081 594.813843,286.844940 594.711670,297.676239 
	C594.628357,306.503387 594.647644,315.332214 594.704163,324.159760 
	C594.779602,335.954102 601.811035,343.482361 613.678772,344.275421 
	C618.489868,344.596954 623.336304,344.348389 628.162659,344.492859 
	C638.954956,344.815796 647.961853,341.984070 652.513855,330.361969 
	C657.114624,341.637360 665.819153,344.802734 676.519592,344.493408 
	C680.680420,344.373108 684.847351,344.481598 689.010925,344.437714 
	C698.498230,344.337799 705.748718,340.604279 710.511047,331.377502 
M725.500000,255.945969 
	C546.007080,255.945984 366.514099,255.945541 187.021164,255.951035 
	C184.689087,255.951111 182.304596,255.741531 180.041428,256.157135 
	C178.216736,256.492218 176.538544,257.624908 174.795364,258.403748 
	C174.896225,259.156738 174.997086,259.909698 175.097946,260.662689 
	C178.548660,261.124084 181.999268,261.988251 185.450134,261.989288 
	C395.941895,262.053528 606.433655,262.047119 816.925415,262.044769 
	C818.424988,262.044739 819.936035,262.118347 821.420715,261.960358 
	C822.730469,261.820984 824.095886,261.589966 825.273987,261.046509 
	C826.051514,260.687866 827.013855,259.712646 827.025940,258.998901 
	C827.037903,258.291870 826.065369,257.094208 825.343506,256.935455 
	C822.938293,256.406586 820.452271,255.990662 817.996338,255.985840 
	C787.497681,255.925812 756.998779,255.946243 725.500000,255.945969 
M718.744263,404.569702 
	C715.245300,398.512665 711.880493,392.370941 708.149841,386.460114 
	C707.253113,385.039368 705.141724,384.385254 703.588928,383.378571 
	C703.244446,383.850372 702.899963,384.322174 702.555481,384.793976 
	C716.895020,409.660370 731.234558,434.526764 745.903442,459.964233 
	C582.452087,459.964233 419.867950,459.964233 256.568085,459.964233 
	C271.290009,434.418427 285.678101,409.451935 300.066193,384.485443 
	C299.507996,383.994873 298.949829,383.504303 298.391632,383.013702 
	C296.833313,384.441742 294.804016,385.595337 293.787750,387.339233 
	C279.701385,411.510620 265.751465,435.761505 251.780029,459.999756 
	C251.069275,461.232819 250.466080,462.527863 249.634293,464.139984 
	C417.587921,464.139984 585.026672,464.139984 753.106934,464.139984 
	C741.547119,444.101471 730.328003,424.653534 718.744263,404.569702 
M455.121033,211.583191 
	C455.121033,221.010010 455.121033,230.436829 455.121033,239.822083 
	C489.284973,239.822083 522.678345,239.822083 556.053345,239.822083 
	C556.053345,212.122345 556.053345,184.771652 556.053345,157.500031 
	C540.656799,157.500031 525.750916,157.500031 510.768066,157.500031 
	C510.768066,160.585663 510.768066,163.294098 510.768066,166.676636 
	C523.038513,166.676636 534.912231,166.676636 546.829956,166.676636 
	C546.829956,188.423019 546.829956,209.480209 546.829956,231.010315 
	C544.853027,231.010315 543.224609,231.010330 541.596252,231.010330 
	C517.943481,231.010330 494.288635,230.844528 470.639557,231.140549 
	C465.480499,231.205139 464.005249,229.762466 464.311371,224.727737 
	C464.739990,217.678207 464.419525,210.583130 464.419525,203.679749 
	C460.793182,203.679749 458.080048,203.679749 455.121094,203.679749 
	C455.121094,206.301453 455.121094,208.458786 455.121033,211.583191 
M463.302551,156.920883 
	C460.708832,157.093918 458.115082,157.266968 455.000183,157.474792 
	C455.000183,163.604599 455.000183,169.352631 455.000183,175.146194 
	C451.725128,175.435242 448.997101,175.676025 446.349548,175.909698 
	C446.349548,182.239227 446.349548,187.973190 446.349548,193.681488 
	C449.457520,193.681488 452.171722,193.681488 454.947693,193.681488 
	C455.104370,190.659973 455.239532,188.053528 455.381378,185.318481 
	C458.487579,185.318481 461.189087,185.318481 463.996735,185.318481 
	C464.197296,188.319992 464.371582,190.928528 464.563751,193.804474 
	C467.584717,193.804474 470.321136,193.804474 473.335785,193.804474 
	C473.599121,190.879761 473.844971,188.149567 474.138000,184.895081 
	C476.921265,185.024307 480.521820,184.207840 481.521484,185.462952 
	C483.115662,187.464432 482.979340,190.844269 483.584259,193.685822 
	C486.334503,193.685822 489.041901,193.685822 491.851959,193.685822 
	C492.025604,190.679413 492.175751,188.079300 492.335999,185.304565 
	C495.406067,185.304565 498.104492,185.304565 500.928497,185.304565 
	C501.109863,188.289749 501.268341,190.897644 501.444061,193.789658 
	C504.454926,193.789658 507.198547,193.789658 510.166443,193.789658 
	C510.166443,187.757431 510.166443,181.878830 510.166443,175.855804 
	C509.000458,175.709778 508.164093,175.411514 507.399963,175.540604 
	C502.279358,176.405701 500.564972,174.300949 501.126495,169.241104 
	C501.555969,165.371414 501.211914,161.415878 501.211914,157.359573 
	C497.831299,157.174927 495.235107,157.033127 492.379150,156.877136 
	C492.158844,153.869568 491.958954,151.140213 491.756714,148.378906 
	C488.650085,148.378906 485.949310,148.378906 483.145691,148.378906 
	C482.938171,151.395477 482.759308,153.995789 482.570312,156.743622 
	C479.537994,156.743622 476.828186,156.743622 473.995209,156.743622 
	C473.757629,153.655945 473.548309,150.935349 473.313263,147.880356 
	C469.997070,148.029755 467.286499,148.151871 464.524506,148.276306 
	C464.320557,151.350662 464.156616,153.821625 463.302551,156.920883 
M531.045654,87.587196 
	C534.543396,93.645569 537.914185,99.783463 541.625305,105.708168 
	C542.590088,107.248421 544.617737,108.122940 546.157166,109.303246 
	C546.611511,108.834679 547.065857,108.366119 547.520203,107.897552 
	C532.228149,81.410378 516.936157,54.923203 501.208923,27.682188 
	C485.388763,55.111382 470.156464,81.521339 454.924164,107.931297 
	C455.487213,108.431458 456.050262,108.931625 456.613312,109.431793 
	C458.158020,108.013916 460.166779,106.866966 461.176910,105.136955 
	C473.605103,83.851532 485.884552,62.479259 498.213074,41.135574 
	C499.093872,39.610699 500.058075,38.134003 501.307343,36.110291 
	C511.366943,53.513252 521.029419,70.229126 531.045654,87.587196 
M360.500183,232.332138 
	C345.083527,232.332138 329.666901,232.332138 314.164978,232.332138 
	C314.164978,234.775101 314.164978,236.516190 314.164978,238.347046 
	C353.841919,238.347046 393.208374,238.347046 432.674377,238.347046 
	C432.674377,236.260422 432.674377,234.527618 432.674377,232.332169 
	C408.723999,232.332169 385.112091,232.332169 360.500183,232.332138 
M650.499939,238.697021 
	C663.080078,238.697021 675.660278,238.697021 688.656433,238.697021 
	C688.530518,236.207672 688.442566,234.469177 688.356934,232.777359 
	C687.422302,232.564224 686.954102,232.364197 686.485779,232.363953 
	C648.709351,232.343597 610.932861,232.362289 573.156555,232.306244 
	C567.807861,232.298309 569.494995,235.432434 569.935181,238.696945 
	C596.639832,238.696945 623.069824,238.696945 650.499939,238.697021 
z"/>
<path fill="#F9F9F9" opacity="1.000000" stroke="none" 
	d="
M491.156006,277.723572 
	C495.128113,277.739258 498.629425,277.682800 502.126099,277.784698 
	C511.622223,278.061310 518.818054,281.906738 522.640564,291.669159 
	C523.460510,290.256653 523.911499,289.010834 524.746765,288.128998 
	C527.229431,285.507874 529.424438,281.857971 532.514709,280.701080 
	C545.199585,275.952148 558.329590,275.827515 570.976135,280.672974 
	C577.533936,283.185516 580.591003,289.269806 580.705811,296.337860 
	C580.865417,306.166748 580.951416,316.005463 580.692932,325.830078 
	C580.430786,335.791748 573.726624,343.161682 563.549316,344.031189 
	C555.780579,344.694885 547.874634,344.642303 540.095398,344.048096 
	C532.011902,343.430664 526.276550,338.773010 522.869568,330.333252 
	C517.991821,342.650757 508.336487,344.915955 497.256104,344.496674 
	C493.761566,344.364441 490.257965,344.487823 486.758881,344.455231 
	C477.102722,344.365295 469.614990,340.727509 465.485260,330.976959 
	C464.792084,331.947968 464.181152,332.605865 463.794708,333.376312 
	C460.418091,340.107880 454.726135,343.662170 447.477478,344.133820 
	C440.180634,344.608612 432.805786,344.615295 425.507874,344.152588 
	C416.950165,343.610046 410.994446,338.861938 407.534149,330.357513 
	C403.139587,341.466766 394.654449,344.726288 384.122253,344.487701 
	C380.458099,344.404694 376.789795,344.427856 373.124573,344.482971 
	C362.817261,344.637939 354.411804,341.506897 349.948212,330.240875 
	C345.009613,342.639618 335.357513,344.937408 324.263916,344.494598 
	C321.269135,344.375061 318.264923,344.429199 315.266296,344.479675 
	C304.932770,344.653656 296.695251,341.268646 292.280640,330.342438 
	C287.382324,342.717896 277.585968,344.945984 266.375244,344.494965 
	C263.380554,344.374481 260.376617,344.440033 257.377594,344.477264 
	C247.196030,344.603607 239.081772,341.221039 234.657166,330.417145 
	C229.620621,342.818787 219.739609,344.966553 208.491882,344.496063 
	C203.999527,344.308167 199.476608,344.588989 195.005356,344.210480 
	C183.675751,343.251495 176.888504,335.775024 176.817581,324.408844 
	C176.761429,315.410736 176.744766,306.411499 176.823929,297.413757 
	C176.916840,286.854248 183.398514,279.151520 193.948746,278.209229 
	C201.710724,277.515991 209.618164,277.589935 217.396317,278.176697 
	C225.519409,278.789429 231.207596,283.505798 234.536728,291.869781 
	C239.653397,279.470581 249.560715,277.180206 260.924713,277.704163 
	C263.751617,277.834503 266.589813,277.754211 269.422302,277.722443 
	C279.581421,277.608521 287.710907,280.953674 292.202484,291.890839 
	C297.698761,278.437958 308.607300,277.212708 320.343750,277.707855 
	C323.005463,277.820129 325.676758,277.684448 328.341278,277.753632 
	C339.100891,278.032990 344.355560,281.283173 349.681946,291.124878 
	C350.314911,290.265259 350.952789,289.599457 351.360199,288.814148 
	C354.811127,282.161652 360.477173,278.557983 367.726288,278.087860 
	C375.021912,277.614746 382.397705,277.590363 389.691071,278.077606 
	C398.021057,278.634064 403.958221,283.149017 407.324860,291.501190 
	C408.830200,289.137634 409.664764,286.513275 411.456635,285.281189 
	C415.465729,282.524597 419.756958,279.051392 424.286041,278.426331 
	C432.286865,277.322113 440.596008,277.593414 448.691833,278.281006 
	C456.545197,278.948029 461.964905,283.852234 465.211029,291.918304 
	C470.170837,279.772675 479.647583,277.256287 491.156006,277.723572 
M429.582123,318.911865 
	C429.582123,314.826874 429.582123,310.741913 429.582123,306.270599 
	C434.003265,306.270599 437.646301,306.126221 441.272247,306.313049 
	C444.594421,306.484222 446.378571,308.279449 446.249664,311.827209 
	C446.125397,315.245972 446.222748,318.672760 446.222748,322.419312 
	C448.349670,322.307526 449.768768,322.232941 451.752197,322.128693 
	C450.364380,315.331268 455.063416,307.342316 445.757263,303.317413 
	C451.015747,299.682739 453.154846,292.515289 450.277954,287.004517 
	C449.259857,285.054260 446.866547,282.705536 444.937958,282.549042 
	C438.215637,282.003601 431.421967,282.338074 424.420929,282.338074 
	C424.420929,295.744110 424.420929,308.811493 424.420929,322.243744 
	C426.625885,321.959869 429.496490,324.123840 429.582123,318.911865 
M396.228760,290.832031 
	C395.569244,284.084595 393.875153,282.317352 387.291107,282.133606 
	C382.481689,281.999359 377.654724,282.042725 372.850830,282.295807 
	C368.656097,282.516785 365.977631,284.750641 365.936829,289.193481 
	C365.856018,297.993134 365.846985,306.794922 365.953064,315.594116 
	C366.003113,319.746796 368.364258,322.043457 372.495422,322.178955 
	C377.637817,322.347565 382.792084,322.459686 387.932465,322.304962 
	C394.252808,322.114685 396.099731,320.157318 396.201813,313.687927 
	C396.317139,306.381256 396.231964,299.071442 396.228760,290.832031 
M201.711838,294.513672 
	C201.711838,292.242310 201.711838,289.970947 201.711838,287.191711 
	C208.300568,287.191711 214.199707,287.191711 220.402924,287.191711 
	C220.256332,285.225586 220.149948,283.798798 220.039093,282.312103 
	C212.133911,282.312103 204.562164,282.312103 196.797485,282.312103 
	C196.797485,295.751099 196.797485,308.919403 196.797485,322.067688 
	C205.069061,322.067688 212.941467,322.067688 221.121567,322.067688 
	C220.985214,320.268646 220.879105,318.868591 220.739258,317.023499 
	C214.335312,317.023499 208.249649,317.023499 202.087036,317.023499 
	C202.087036,312.840027 202.087036,309.136871 202.087036,304.869354 
	C207.518341,304.869354 212.587982,304.869354 218.020538,304.869354 
	C217.867386,302.866089 217.760269,301.464874 217.628647,299.743408 
	C213.448364,299.743408 209.624741,299.535461 205.835159,299.805450 
	C202.452621,300.046387 201.273804,298.700287 201.711838,294.513672 
M274.865509,309.660980 
	C274.830627,317.131866 274.830627,317.134857 267.459961,317.145508 
	C263.157562,317.151733 258.855133,317.146637 254.123825,317.146637 
	C253.833115,318.375977 253.476730,319.883026 252.879181,322.409943 
	C257.869171,322.409943 262.154114,322.411102 266.439087,322.409760 
	C279.338531,322.405701 280.457581,321.266052 280.107056,308.478119 
	C280.084290,307.646912 280.072723,306.810333 279.968994,305.987244 
	C279.493835,302.217834 277.533203,299.795074 273.589966,299.573120 
	C269.606689,299.348938 265.601959,299.163635 261.621429,299.325256 
	C257.405212,299.496399 256.634308,297.230560 256.718323,293.717407 
	C256.798157,290.378479 256.668701,287.216278 261.406677,287.297974 
	C266.686279,287.389008 271.968658,287.318817 277.750153,287.318817 
	C277.892242,286.173035 278.081482,284.647064 278.284912,283.006470 
	C276.654572,282.673462 275.533783,282.273407 274.403229,282.243713 
	C269.911774,282.125641 265.414246,281.998779 260.924530,282.106506 
	C253.803802,282.277374 251.766281,284.346924 251.510834,291.429840 
	C251.439056,293.420074 251.538803,295.422577 251.666046,297.412689 
	C251.941956,301.727264 254.194138,304.144135 258.601166,304.276123 
	C262.426636,304.390686 266.254730,304.437866 270.082031,304.464813 
	C272.980896,304.485229 274.948212,305.463440 274.865509,309.660980 
M557.257568,299.279633 
	C554.760010,299.276672 552.254456,299.145538 549.766602,299.299316 
	C545.495056,299.563385 544.926575,297.073761 544.955811,293.614105 
	C544.985107,290.150696 545.121765,287.202515 549.763184,287.293884 
	C555.046387,287.397858 560.333252,287.317902 566.012573,287.317902 
	C566.171448,286.158966 566.381104,284.629852 566.732239,282.068451 
	C561.449524,282.068451 556.828308,282.062439 552.207092,282.069641 
	C541.032715,282.086975 539.567871,283.602478 539.807495,294.903961 
	C539.828735,295.901123 539.894226,296.898743 539.976807,297.893005 
	C540.301697,301.802246 542.466248,303.988953 546.340759,304.204346 
	C550.492065,304.435059 554.657227,304.420807 558.816406,304.505981 
	C564.162415,304.615509 562.886658,308.609314 563.077881,311.750092 
	C563.272705,314.948883 562.715576,317.326263 558.606567,317.181702 
	C553.317627,316.995605 548.017151,317.136383 542.318115,317.136383 
	C542.069397,318.495392 541.795654,319.990906 541.399658,322.154388 
	C548.826965,322.154388 555.659363,322.614105 562.362122,321.883667 
	C564.464783,321.654510 566.719421,318.492584 567.965881,316.169403 
	C568.881531,314.462708 568.334473,311.934967 568.323364,309.773712 
	C568.278809,301.100555 566.993469,299.791382 557.257568,299.279633 
M337.312195,301.536621 
	C337.304901,297.224548 337.425720,292.907318 337.251251,288.602020 
	C337.102112,284.921143 334.853058,282.577972 331.296661,282.429749 
	C324.555420,282.148773 317.794128,282.348419 310.806580,282.348419 
	C310.806580,295.738953 310.806580,308.801422 310.806580,322.358124 
	C312.583435,322.265320 314.110474,322.185547 315.958008,322.089050 
	C315.958008,317.275024 315.958008,312.998596 315.958008,307.994843 
	C320.898163,307.994843 325.510071,308.087189 330.116302,307.965515 
	C333.780640,307.868774 336.541809,306.382538 337.312195,301.536621 
M507.153687,282.085754 
	C499.199371,282.085754 491.245087,282.085754 482.996613,282.085754 
	C482.996613,283.975769 482.996613,285.489380 482.996613,287.423035 
	C486.796143,287.423035 490.229034,287.423035 494.164795,287.423035 
	C494.164795,299.224426 494.164795,310.616364 494.164795,322.094604 
	C496.089630,322.094604 497.491333,322.094604 499.427246,322.094604 
	C499.427246,310.445221 499.427246,299.065857 499.427246,287.114563 
	C503.515991,287.114563 507.075592,287.114563 510.635162,287.114563 
	C510.944672,286.612488 511.254150,286.110413 511.563629,285.608337 
	C510.400116,284.434937 509.236572,283.261536 507.153687,282.085754 
z"/>
<path fill="#F9F9F9" opacity="1.000000" stroke="none" 
	d="
M710.113953,331.485535 
	C705.748718,340.604279 698.498230,344.337799 689.010925,344.437714 
	C684.847351,344.481598 680.680420,344.373108 676.519592,344.493408 
	C665.819153,344.802734 657.114624,341.637360 652.513855,330.361969 
	C647.961853,341.984070 638.954956,344.815796 628.162659,344.492859 
	C623.336304,344.348389 618.489868,344.596954 613.678772,344.275421 
	C601.811035,343.482361 594.779602,335.954102 594.704163,324.159760 
	C594.647644,315.332214 594.628357,306.503387 594.711670,297.676239 
	C594.813843,286.844940 601.369995,279.089081 612.109863,278.179199 
	C619.873230,277.521484 627.775513,277.588257 635.547424,278.200531 
	C643.648438,278.838745 649.220459,283.700653 652.507202,291.887604 
	C657.369446,280.117065 666.572510,277.283569 677.553833,277.706726 
	C680.381287,277.815704 683.217896,277.783264 686.047791,277.713074 
	C696.634827,277.450439 705.521667,280.250092 710.125366,291.980499 
	C715.168091,279.823334 724.605530,277.284912 735.621643,277.702454 
	C739.281067,277.841156 742.950012,277.709076 746.613708,277.759796 
	C755.631592,277.884674 762.777283,281.250000 767.863953,291.664520 
	C768.903625,289.690674 769.472473,288.387573 770.231873,287.207001 
	C773.923462,281.467804 779.356140,278.366913 786.021729,278.026459 
	C793.160095,277.661835 800.361938,277.540009 807.482544,278.053711 
	C818.795410,278.869812 825.608521,286.523102 825.711731,297.849030 
	C825.793701,306.842743 825.814514,315.838867 825.704956,324.832001 
	C825.575378,335.465424 819.103210,343.105499 808.548218,344.029297 
	C800.785400,344.708679 792.881409,344.640472 785.104553,344.053925 
	C777.026672,343.444641 771.304871,338.773926 767.850403,330.382477 
	C763.007812,342.442871 753.577698,344.897430 742.618835,344.496826 
	C739.125549,344.369110 735.623840,344.455383 732.126038,344.469269 
	C722.250427,344.508484 714.701355,340.718933 710.113953,331.485535 
M737.780396,322.424683 
	C741.604187,322.377014 745.427856,322.320007 749.251709,322.284027 
	C753.951538,322.239807 756.368286,319.705048 756.445740,315.181915 
	C756.590881,306.705872 756.703186,298.219666 756.439880,289.749786 
	C756.274109,284.416656 754.028625,282.444946 748.512390,282.181763 
	C743.866638,281.960083 739.196472,281.957733 734.548523,282.143555 
	C728.279114,282.394135 726.182617,284.532013 726.060059,290.757812 
	C725.925781,297.574188 726.009216,304.395172 726.021973,311.214081 
	C726.040161,320.943451 727.153076,322.083008 737.780396,322.424683 
M680.556396,299.105896 
	C678.447754,299.105896 676.339111,299.105896 673.625000,299.105896 
	C673.625000,293.121002 673.625000,287.736908 673.625000,282.008148 
	C671.580444,282.157715 670.173889,282.260620 668.639526,282.372864 
	C668.639526,295.797455 668.639526,308.858948 668.639526,322.381378 
	C670.473267,322.298676 672.015503,322.229126 673.947144,322.141998 
	C673.947144,316.037689 673.947144,310.441193 673.947144,304.636108 
	C680.736389,304.636108 687.107483,304.636108 693.860291,304.636108 
	C693.860291,310.586639 693.860291,316.192780 693.860291,322.055054 
	C695.785828,322.055054 697.324707,322.055054 698.761475,322.055054 
	C698.761475,308.602234 698.761475,295.524719 698.761475,282.065216 
	C697.010559,282.186981 695.627808,282.283112 693.818176,282.408966 
	C693.818176,288.042938 693.818176,293.305328 693.818176,299.105896 
	C689.433167,299.105896 685.486755,299.105896 680.556396,299.105896 
M623.512634,317.144745 
	C620.556458,317.144745 617.600342,317.144745 614.377380,317.144745 
	C614.086182,318.462280 613.779846,319.848663 613.213257,322.412292 
	C617.852112,322.412292 621.941772,322.306061 626.024353,322.431458 
	C640.598877,322.879150 640.675659,320.545197 640.275574,306.698639 
	C640.270752,306.532684 640.242798,306.367523 640.230530,306.201630 
	C639.926453,302.083984 637.705750,299.754028 633.602356,299.528503 
	C629.453735,299.300537 625.290039,299.231171 621.134827,299.271942 
	C617.265747,299.309875 616.938354,296.858093 617.036438,293.948364 
	C617.135071,291.023590 616.369995,287.430634 620.961853,287.406738 
	C625.933350,287.380829 630.906433,287.726501 635.879700,287.885132 
	C636.509644,287.905243 637.144470,287.774170 637.977600,287.693756 
	C638.197998,286.145447 638.399536,284.729828 638.777588,282.074646 
	C632.702454,282.074646 627.119812,281.986633 621.541077,282.095978 
	C613.840515,282.246918 611.929688,284.262024 611.815857,292.087128 
	C611.789246,293.914551 611.844482,295.747192 611.955078,297.571777 
	C612.204224,301.683289 614.384827,304.027924 618.528198,304.228027 
	C622.513550,304.420502 626.508606,304.429596 630.499817,304.478851 
	C633.453491,304.515289 634.999207,305.635925 635.158081,308.911774 
	C635.532043,316.622437 635.188049,317.132568 627.473328,317.144470 
	C626.474854,317.146027 625.476379,317.144806 623.512634,317.144745 
M796.511169,282.068695 
	C793.234985,282.068695 789.958801,282.068695 786.427002,282.068695 
	C786.427002,295.683777 786.427002,308.730225 786.427002,322.014008 
	C788.052734,322.014008 789.565308,322.014008 791.583679,322.014008 
	C791.583679,317.221283 791.583679,312.812408 791.583679,308.125671 
	C795.900574,308.125671 799.713562,308.211395 803.521423,308.107666 
	C811.282837,307.896240 813.070557,306.002441 813.200500,298.106995 
	C813.455139,282.625732 812.910889,282.070251 796.511169,282.068695 
z"/>
<path fill="#F0F0F0" opacity="1.000000" stroke="none" 
	d="
M726.000000,255.945969 
	C756.998779,255.946243 787.497681,255.925812 817.996338,255.985840 
	C820.452271,255.990662 822.938293,256.406586 825.343506,256.935455 
	C826.065369,257.094208 827.037903,258.291870 827.025940,258.998901 
	C827.013855,259.712646 826.051514,260.687866 825.273987,261.046509 
	C824.095886,261.589966 822.730469,261.820984 821.420715,261.960358 
	C819.936035,262.118347 818.424988,262.044739 816.925415,262.044769 
	C606.433655,262.047119 395.941895,262.053528 185.450134,261.989288 
	C181.999268,261.988251 178.548660,261.124084 175.097946,260.662689 
	C174.997086,259.909698 174.896225,259.156738 174.795364,258.403748 
	C176.538544,257.624908 178.216736,256.492218 180.041428,256.157135 
	C182.304596,255.741531 184.689087,255.951111 187.021164,255.951035 
	C366.514099,255.945541 546.007080,255.945984 726.000000,255.945969 
z"/>
<path fill="#E3E3E3" opacity="1.000000" stroke="none" 
	d="
M718.926575,404.887665 
	C730.328003,424.653534 741.547119,444.101471 753.106934,464.139984 
	C585.026672,464.139984 417.587921,464.139984 249.634293,464.139984 
	C250.466080,462.527863 251.069275,461.232819 251.780029,459.999756 
	C265.751465,435.761505 279.701385,411.510620 293.787750,387.339233 
	C294.804016,385.595337 296.833313,384.441742 298.391632,383.013702 
	C298.949829,383.504303 299.507996,383.994873 300.066193,384.485443 
	C285.678101,409.451935 271.290009,434.418427 256.568085,459.964233 
	C419.867950,459.964233 582.452087,459.964233 745.903442,459.964233 
	C731.234558,434.526764 716.895020,409.660370 702.555481,384.793976 
	C702.899963,384.322174 703.244446,383.850372 703.588928,383.378571 
	C705.141724,384.385254 707.253113,385.039368 708.149841,386.460114 
	C711.880493,392.370941 715.245300,398.512665 718.926575,404.887665 
z"/>
<path fill="#6164EA" opacity="1.000000" stroke="none" 
	d="
M455.121063,211.099640 
	C455.121094,208.458786 455.121094,206.301453 455.121094,203.679749 
	C458.080048,203.679749 460.793182,203.679749 464.419525,203.679749 
	C464.419525,210.583130 464.739990,217.678207 464.311371,224.727737 
	C464.005249,229.762466 465.480499,231.205139 470.639557,231.140549 
	C494.288635,230.844528 517.943481,231.010330 541.596252,231.010330 
	C543.224609,231.010330 544.853027,231.010315 546.829956,231.010315 
	C546.829956,209.480209 546.829956,188.423019 546.829956,166.676636 
	C534.912231,166.676636 523.038513,166.676636 510.768066,166.676636 
	C510.768066,163.294098 510.768066,160.585663 510.768066,157.500031 
	C525.750916,157.500031 540.656799,157.500031 556.053345,157.500031 
	C556.053345,184.771652 556.053345,212.122345 556.053345,239.822083 
	C522.678345,239.822083 489.284973,239.822083 455.121033,239.822083 
	C455.121033,230.436829 455.121033,221.010010 455.121063,211.099640 
z"/>
<path fill="#6063E9" opacity="1.000000" stroke="none" 
	d="
M463.647614,156.606750 
	C464.156616,153.821625 464.320557,151.350662 464.524506,148.276306 
	C467.286499,148.151871 469.997070,148.029755 473.313263,147.880356 
	C473.548309,150.935349 473.757629,153.655945 473.995209,156.743622 
	C476.828186,156.743622 479.537994,156.743622 482.570312,156.743622 
	C482.759308,153.995789 482.938171,151.395477 483.145691,148.378906 
	C485.949310,148.378906 488.650085,148.378906 491.756714,148.378906 
	C491.958954,151.140213 492.158844,153.869568 492.379150,156.877136 
	C495.235107,157.033127 497.831299,157.174927 501.211914,157.359573 
	C501.211914,161.415878 501.555969,165.371414 501.126495,169.241104 
	C500.564972,174.300949 502.279358,176.405701 507.399963,175.540604 
	C508.164093,175.411514 509.000458,175.709778 510.166443,175.855804 
	C510.166443,181.878830 510.166443,187.757431 510.166443,193.789658 
	C507.198547,193.789658 504.454926,193.789658 501.444061,193.789658 
	C501.268341,190.897644 501.109863,188.289749 500.928497,185.304565 
	C498.104492,185.304565 495.406067,185.304565 492.335999,185.304565 
	C492.175751,188.079300 492.025604,190.679413 491.851959,193.685822 
	C489.041901,193.685822 486.334503,193.685822 483.584259,193.685822 
	C482.979340,190.844269 483.115662,187.464432 481.521484,185.462952 
	C480.521820,184.207840 476.921265,185.024307 474.138000,184.895081 
	C473.844971,188.149567 473.599121,190.879761 473.335785,193.804474 
	C470.321136,193.804474 467.584717,193.804474 464.563751,193.804474 
	C464.371582,190.928528 464.197296,188.319992 463.996735,185.318481 
	C461.189087,185.318481 458.487579,185.318481 455.381378,185.318481 
	C455.239532,188.053528 455.104370,190.659973 454.947693,193.681488 
	C452.171722,193.681488 449.457520,193.681488 446.349548,193.681488 
	C446.349548,187.973190 446.349548,182.239227 446.349548,175.909698 
	C448.997101,175.676025 451.725128,175.435242 455.000183,175.146194 
	C455.000183,169.352631 455.000183,163.604599 455.000183,157.474792 
	C458.115082,157.266968 460.708832,157.093918 463.647614,156.606750 
M473.717804,174.031876 
	C473.932648,165.459259 472.720551,164.541168 464.199982,167.205154 
	C464.199982,169.059143 463.971069,171.068726 464.293549,172.985535 
	C464.462921,173.992188 465.575745,175.594009 466.300415,175.614929 
	C468.673157,175.683395 471.063293,175.150009 473.717804,174.031876 
M492.097748,173.238281 
	C492.097748,171.117935 492.097748,168.997574 492.097748,166.583893 
	C488.818756,166.583893 486.104095,166.583893 482.489136,166.583893 
	C483.004822,169.848495 483.446686,172.645615 483.888519,175.442719 
	C486.602234,175.003403 489.315918,174.564087 492.097748,173.238281 
z"/>
<path fill="#E4E3E3" opacity="1.000000" stroke="none" 
	d="
M530.868774,87.266098 
	C521.029419,70.229126 511.366943,53.513252 501.307343,36.110291 
	C500.058075,38.134003 499.093872,39.610699 498.213074,41.135574 
	C485.884552,62.479259 473.605103,83.851532 461.176910,105.136955 
	C460.166779,106.866966 458.158020,108.013916 456.613312,109.431793 
	C456.050262,108.931625 455.487213,108.431458 454.924164,107.931297 
	C470.156464,81.521339 485.388763,55.111382 501.208923,27.682188 
	C516.936157,54.923203 532.228149,81.410378 547.520203,107.897552 
	C547.065857,108.366119 546.611511,108.834679 546.157166,109.303246 
	C544.617737,108.122940 542.590088,107.248421 541.625305,105.708168 
	C537.914185,99.783463 534.543396,93.645569 530.868774,87.266098 
z"/>
<path fill="#DCDBDB" opacity="1.000000" stroke="none" 
	d="
M361.000183,232.332153 
	C385.112091,232.332169 408.723999,232.332169 432.674377,232.332169 
	C432.674377,234.527618 432.674377,236.260422 432.674377,238.347046 
	C393.208374,238.347046 353.841919,238.347046 314.164978,238.347046 
	C314.164978,236.516190 314.164978,234.775101 314.164978,232.332138 
	C329.666901,232.332138 345.083527,232.332138 361.000183,232.332153 
z"/>
<path fill="#DCDBDB" opacity="1.000000" stroke="none" 
	d="
M649.999878,238.696991 
	C623.069824,238.696945 596.639832,238.696945 569.935181,238.696945 
	C569.494995,235.432434 567.807861,232.298309 573.156555,232.306244 
	C610.932861,232.362289 648.709351,232.343597 686.485779,232.363953 
	C686.954102,232.364197 687.422302,232.564224 688.356934,232.777359 
	C688.442566,234.469177 688.530518,236.207672 688.656433,238.697021 
	C675.660278,238.697021 663.080078,238.697021 649.999878,238.696991 
z"/>
<path fill="#312E2C" opacity="1.000000" stroke="none" 
	d="
M429.580627,319.340576 
	C429.496490,324.123840 426.625885,321.959869 424.420929,322.243744 
	C424.420929,308.811493 424.420929,295.744110 424.420929,282.338074 
	C431.421967,282.338074 438.215637,282.003601 444.937958,282.549042 
	C446.866547,282.705536 449.259857,285.054260 450.277954,287.004517 
	C453.154846,292.515289 451.015747,299.682739 445.757263,303.317413 
	C455.063416,307.342316 450.364380,315.331268 451.752197,322.128693 
	C449.768768,322.232941 448.349670,322.307526 446.222748,322.419312 
	C446.222748,318.672760 446.125397,315.245972 446.249664,311.827209 
	C446.378571,308.279449 444.594421,306.484222 441.272247,306.313049 
	C437.646301,306.126221 434.003265,306.270599 429.582123,306.270599 
	C429.582123,310.741913 429.582123,314.826874 429.580627,319.340576 
M429.593170,299.350525 
	C432.342010,301.460968 442.848328,302.179688 444.180634,299.690857 
	C445.599884,297.039581 445.838593,293.436584 445.541748,290.350189 
	C445.429413,289.181793 442.467255,287.657227 440.655304,287.416901 
	C437.144714,286.951324 433.528625,287.280792 429.532288,287.280792 
	C429.532288,291.479492 429.532288,294.932831 429.593170,299.350525 
z"/>
<path fill="#2B2826" opacity="1.000000" stroke="none" 
	d="
M396.231384,291.297516 
	C396.231964,299.071442 396.317139,306.381256 396.201813,313.687927 
	C396.099731,320.157318 394.252808,322.114685 387.932465,322.304962 
	C382.792084,322.459686 377.637817,322.347565 372.495422,322.178955 
	C368.364258,322.043457 366.003113,319.746796 365.953064,315.594116 
	C365.846985,306.794922 365.856018,297.993134 365.936829,289.193481 
	C365.977631,284.750641 368.656097,282.516785 372.850830,282.295807 
	C377.654724,282.042725 382.481689,281.999359 387.291107,282.133606 
	C393.875153,282.317352 395.569244,284.084595 396.231384,291.297516 
M380.521576,317.156982 
	C382.187164,317.156189 383.864990,317.025208 385.515900,317.180420 
	C389.520264,317.556915 391.418091,316.055573 391.112488,311.817688 
	C390.873505,308.503754 391.138672,305.156891 391.053436,301.827881 
	C390.618927,284.853851 394.528442,287.586517 375.672699,287.272186 
	C371.948334,287.210083 370.775848,288.868958 370.886932,292.428497 
	C371.084229,298.751587 371.137573,305.093445 370.873840,311.411682 
	C370.694672,315.703705 372.130615,317.727631 376.571808,317.172211 
	C377.555634,317.049164 378.568237,317.155975 380.521576,317.156982 
z"/>
<path fill="#343230" opacity="1.000000" stroke="none" 
	d="
M201.712128,295.019684 
	C201.273804,298.700287 202.452621,300.046387 205.835159,299.805450 
	C209.624741,299.535461 213.448364,299.743408 217.628647,299.743408 
	C217.760269,301.464874 217.867386,302.866089 218.020538,304.869354 
	C212.587982,304.869354 207.518341,304.869354 202.087036,304.869354 
	C202.087036,309.136871 202.087036,312.840027 202.087036,317.023499 
	C208.249649,317.023499 214.335312,317.023499 220.739258,317.023499 
	C220.879105,318.868591 220.985214,320.268646 221.121567,322.067688 
	C212.941467,322.067688 205.069061,322.067688 196.797485,322.067688 
	C196.797485,308.919403 196.797485,295.751099 196.797485,282.312103 
	C204.562164,282.312103 212.133911,282.312103 220.039093,282.312103 
	C220.149948,283.798798 220.256332,285.225586 220.402924,287.191711 
	C214.199707,287.191711 208.300568,287.191711 201.711838,287.191711 
	C201.711838,289.970947 201.711838,292.242310 201.712128,295.019684 
z"/>
<path fill="#2D2A28" opacity="1.000000" stroke="none" 
	d="
M274.860901,309.213745 
	C274.948212,305.463440 272.980896,304.485229 270.082031,304.464813 
	C266.254730,304.437866 262.426636,304.390686 258.601166,304.276123 
	C254.194138,304.144135 251.941956,301.727264 251.666046,297.412689 
	C251.538803,295.422577 251.439056,293.420074 251.510834,291.429840 
	C251.766281,284.346924 253.803802,282.277374 260.924530,282.106506 
	C265.414246,281.998779 269.911774,282.125641 274.403229,282.243713 
	C275.533783,282.273407 276.654572,282.673462 278.284912,283.006470 
	C278.081482,284.647064 277.892242,286.173035 277.750153,287.318817 
	C271.968658,287.318817 266.686279,287.389008 261.406677,287.297974 
	C256.668701,287.216278 256.798157,290.378479 256.718323,293.717407 
	C256.634308,297.230560 257.405212,299.496399 261.621429,299.325256 
	C265.601959,299.163635 269.606689,299.348938 273.589966,299.573120 
	C277.533203,299.795074 279.493835,302.217834 279.968994,305.987244 
	C280.072723,306.810333 280.084290,307.646912 280.107056,308.478119 
	C280.457581,321.266052 279.338531,322.405701 266.439087,322.409760 
	C262.154114,322.411102 257.869171,322.409943 252.879181,322.409943 
	C253.476730,319.883026 253.833115,318.375977 254.123825,317.146637 
	C258.855133,317.146637 263.157562,317.151733 267.459961,317.145508 
	C274.830627,317.134857 274.830627,317.131866 274.860901,309.213745 
z"/>
<path fill="#2D2B29" opacity="1.000000" stroke="none" 
	d="
M557.712891,299.280151 
	C566.993469,299.791382 568.278809,301.100555 568.323364,309.773712 
	C568.334473,311.934967 568.881531,314.462708 567.965881,316.169403 
	C566.719421,318.492584 564.464783,321.654510 562.362122,321.883667 
	C555.659363,322.614105 548.826965,322.154388 541.399658,322.154388 
	C541.795654,319.990906 542.069397,318.495392 542.318115,317.136383 
	C548.017151,317.136383 553.317627,316.995605 558.606567,317.181702 
	C562.715576,317.326263 563.272705,314.948883 563.077881,311.750092 
	C562.886658,308.609314 564.162415,304.615509 558.816406,304.505981 
	C554.657227,304.420807 550.492065,304.435059 546.340759,304.204346 
	C542.466248,303.988953 540.301697,301.802246 539.976807,297.893005 
	C539.894226,296.898743 539.828735,295.901123 539.807495,294.903961 
	C539.567871,283.602478 541.032715,282.086975 552.207092,282.069641 
	C556.828308,282.062439 561.449524,282.068451 566.732239,282.068451 
	C566.381104,284.629852 566.171448,286.158966 566.012573,287.317902 
	C560.333252,287.317902 555.046387,287.397858 549.763184,287.293884 
	C545.121765,287.202515 544.985107,290.150696 544.955811,293.614105 
	C544.926575,297.073761 545.495056,299.563385 549.766602,299.299316 
	C552.254456,299.145538 554.760010,299.276672 557.712891,299.280151 
z"/>
<path fill="#2F2C2A" opacity="1.000000" stroke="none" 
	d="
M337.257172,301.950714 
	C336.541809,306.382538 333.780640,307.868774 330.116302,307.965515 
	C325.510071,308.087189 320.898163,307.994843 315.958008,307.994843 
	C315.958008,312.998596 315.958008,317.275024 315.958008,322.089050 
	C314.110474,322.185547 312.583435,322.265320 310.806580,322.358124 
	C310.806580,308.801422 310.806580,295.738953 310.806580,282.348419 
	C317.794128,282.348419 324.555420,282.148773 331.296661,282.429749 
	C334.853058,282.577972 337.102112,284.921143 337.251251,288.602020 
	C337.425720,292.907318 337.304901,297.224548 337.257172,301.950714 
M330.730225,287.792236 
	C325.852417,287.792236 320.974640,287.792236 316.058594,287.792236 
	C316.058594,292.826904 316.058594,297.567841 316.058594,302.743256 
	C320.617920,302.743256 324.903137,302.954590 329.140503,302.597565 
	C330.226166,302.506073 331.967010,300.656128 332.017731,299.550323 
	C332.190247,295.789215 331.741852,291.999664 330.730225,287.792236 
z"/>
<path fill="#282523" opacity="1.000000" stroke="none" 
	d="
M507.613373,282.086945 
	C509.236572,283.261536 510.400116,284.434937 511.563629,285.608337 
	C511.254150,286.110413 510.944672,286.612488 510.635162,287.114563 
	C507.075592,287.114563 503.515991,287.114563 499.427246,287.114563 
	C499.427246,299.065857 499.427246,310.445221 499.427246,322.094604 
	C497.491333,322.094604 496.089630,322.094604 494.164795,322.094604 
	C494.164795,310.616364 494.164795,299.224426 494.164795,287.423035 
	C490.229034,287.423035 486.796143,287.423035 482.996613,287.423035 
	C482.996613,285.489380 482.996613,283.975769 482.996613,282.085754 
	C491.245087,282.085754 499.199371,282.085754 507.613373,282.086945 
z"/>
<path fill="#312E2C" opacity="1.000000" stroke="none" 
	d="
M737.326904,322.424255 
	C727.153076,322.083008 726.040161,320.943451 726.021973,311.214081 
	C726.009216,304.395172 725.925781,297.574188 726.060059,290.757812 
	C726.182617,284.532013 728.279114,282.394135 734.548523,282.143555 
	C739.196472,281.957733 743.866638,281.960083 748.512390,282.181763 
	C754.028625,282.444946 756.274109,284.416656 756.439880,289.749786 
	C756.703186,298.219666 756.590881,306.705872 756.445740,315.181915 
	C756.368286,319.705048 753.951538,322.239807 749.251709,322.284027 
	C745.427856,322.320007 741.604187,322.377014 737.326904,322.424255 
M734.911255,317.103516 
	C735.243469,317.112396 735.575623,317.127380 735.907898,317.129333 
	C751.286316,317.219696 751.472107,317.216736 751.236267,301.741730 
	C750.978699,284.839050 754.824036,287.575745 735.882385,287.324921 
	C735.716370,287.322754 735.550232,287.339081 735.384155,287.339386 
	C732.579041,287.344940 731.133789,288.529297 731.177734,291.555023 
	C731.281616,298.698334 731.067261,305.849640 731.337952,312.984192 
	C731.390137,314.361023 733.066284,315.676300 734.911255,317.103516 
z"/>
<path fill="#343230" opacity="1.000000" stroke="none" 
	d="
M681.048340,299.105896 
	C685.486755,299.105896 689.433167,299.105896 693.818176,299.105896 
	C693.818176,293.305328 693.818176,288.042938 693.818176,282.408966 
	C695.627808,282.283112 697.010559,282.186981 698.761475,282.065216 
	C698.761475,295.524719 698.761475,308.602234 698.761475,322.055054 
	C697.324707,322.055054 695.785828,322.055054 693.860291,322.055054 
	C693.860291,316.192780 693.860291,310.586639 693.860291,304.636108 
	C687.107483,304.636108 680.736389,304.636108 673.947144,304.636108 
	C673.947144,310.441193 673.947144,316.037689 673.947144,322.141998 
	C672.015503,322.229126 670.473267,322.298676 668.639526,322.381378 
	C668.639526,308.858948 668.639526,295.797455 668.639526,282.372864 
	C670.173889,282.260620 671.580444,282.157715 673.625000,282.008148 
	C673.625000,287.736908 673.625000,293.121002 673.625000,299.105896 
	C676.339111,299.105896 678.447754,299.105896 681.048340,299.105896 
z"/>
<path fill="#2E2B29" opacity="1.000000" stroke="none" 
	d="
M623.995239,317.144806 
	C625.476379,317.144806 626.474854,317.146027 627.473328,317.144470 
	C635.188049,317.132568 635.532043,316.622437 635.158081,308.911774 
	C634.999207,305.635925 633.453491,304.515289 630.499817,304.478851 
	C626.508606,304.429596 622.513550,304.420502 618.528198,304.228027 
	C614.384827,304.027924 612.204224,301.683289 611.955078,297.571777 
	C611.844482,295.747192 611.789246,293.914551 611.815857,292.087128 
	C611.929688,284.262024 613.840515,282.246918 621.541077,282.095978 
	C627.119812,281.986633 632.702454,282.074646 638.777588,282.074646 
	C638.399536,284.729828 638.197998,286.145447 637.977600,287.693756 
	C637.144470,287.774170 636.509644,287.905243 635.879700,287.885132 
	C630.906433,287.726501 625.933350,287.380829 620.961853,287.406738 
	C616.369995,287.430634 617.135071,291.023590 617.036438,293.948364 
	C616.938354,296.858093 617.265747,299.309875 621.134827,299.271942 
	C625.290039,299.231171 629.453735,299.300537 633.602356,299.528503 
	C637.705750,299.754028 639.926453,302.083984 640.230530,306.201630 
	C640.242798,306.367523 640.270752,306.532684 640.275574,306.698639 
	C640.675659,320.545197 640.598877,322.879150 626.024353,322.431458 
	C621.941772,322.306061 617.852112,322.412292 613.213257,322.412292 
	C613.779846,319.848663 614.086182,318.462280 614.377380,317.144745 
	C617.600342,317.144745 620.556458,317.144745 623.995239,317.144806 
z"/>
<path fill="#2D2B29" opacity="1.000000" stroke="none" 
	d="
M796.999023,282.068695 
	C812.910889,282.070251 813.455139,282.625732 813.200500,298.106995 
	C813.070557,306.002441 811.282837,307.896240 803.521423,308.107666 
	C799.713562,308.211395 795.900574,308.125671 791.583679,308.125671 
	C791.583679,312.812408 791.583679,317.221283 791.583679,322.014008 
	C789.565308,322.014008 788.052734,322.014008 786.427002,322.014008 
	C786.427002,308.730225 786.427002,295.683777 786.427002,282.068695 
	C789.958801,282.068695 793.234985,282.068695 796.999023,282.068695 
M805.727539,287.556763 
	C801.013611,287.556763 796.299744,287.556763 791.701416,287.556763 
	C791.701416,292.921814 791.701416,297.781250 791.701416,302.852020 
	C796.091614,302.852020 800.064026,303.010468 804.010132,302.758453 
	C805.243774,302.679657 807.437134,301.489563 807.434448,300.815063 
	C807.417542,296.489716 806.911682,292.166321 805.727539,287.556763 
z"/>
<path fill="#262438" opacity="1.000000" stroke="none" 
	d="
M473.582275,174.439941 
	C471.063293,175.150009 468.673157,175.683395 466.300415,175.614929 
	C465.575745,175.594009 464.462921,173.992188 464.293549,172.985535 
	C463.971069,171.068726 464.199982,169.059143 464.199982,167.205154 
	C472.720551,164.541168 473.932648,165.459259 473.582275,174.439941 
z"/>
<path fill="#242231" opacity="1.000000" stroke="none" 
	d="
M492.063690,173.681519 
	C489.315918,174.564087 486.602234,175.003403 483.888519,175.442719 
	C483.446686,172.645615 483.004822,169.848495 482.489136,166.583893 
	C486.104095,166.583893 488.818756,166.583893 492.097748,166.583893 
	C492.097748,168.997574 492.097748,171.117935 492.063690,173.681519 
z"/>
<path fill="#ECECEC" opacity="1.000000" stroke="none" 
	d="
M429.562744,298.868347 
	C429.532288,294.932831 429.532288,291.479492 429.532288,287.280792 
	C433.528625,287.280792 437.144714,286.951324 440.655304,287.416901 
	C442.467255,287.657227 445.429413,289.181793 445.541748,290.350189 
	C445.838593,293.436584 445.599884,297.039581 444.180634,299.690857 
	C442.848328,302.179688 432.342010,301.460968 429.562744,298.868347 
z"/>
<path fill="#F8F8F8" opacity="1.000000" stroke="none" 
	d="
M380.044586,317.156952 
	C378.568237,317.155975 377.555634,317.049164 376.571808,317.172211 
	C372.130615,317.727631 370.694672,315.703705 370.873840,311.411682 
	C371.137573,305.093445 371.084229,298.751587 370.886932,292.428497 
	C370.775848,288.868958 371.948334,287.210083 375.672699,287.272186 
	C394.528442,287.586517 390.618927,284.853851 391.053436,301.827881 
	C391.138672,305.156891 390.873505,308.503754 391.112488,311.817688 
	C391.418091,316.055573 389.520264,317.556915 385.515900,317.180420 
	C383.864990,317.025208 382.187164,317.156189 380.044586,317.156952 
z"/>
<path fill="#F3F2F2" opacity="1.000000" stroke="none" 
	d="
M331.130371,288.006592 
	C331.741852,291.999664 332.190247,295.789215 332.017731,299.550323 
	C331.967010,300.656128 330.226166,302.506073 329.140503,302.597565 
	C324.903137,302.954590 320.617920,302.743256 316.058594,302.743256 
	C316.058594,297.567841 316.058594,292.826904 316.058594,287.792236 
	C320.974640,287.792236 325.852417,287.792236 331.130371,288.006592 
z"/>
<path fill="#F8F8F8" opacity="1.000000" stroke="none" 
	d="
M734.452271,317.061768 
	C733.066284,315.676300 731.390137,314.361023 731.337952,312.984192 
	C731.067261,305.849640 731.281616,298.698334 731.177734,291.555023 
	C731.133789,288.529297 732.579041,287.344940 735.384155,287.339386 
	C735.550232,287.339081 735.716370,287.322754 735.882385,287.324921 
	C754.824036,287.575745 750.978699,284.839050 751.236267,301.741730 
	C751.472107,317.216736 751.286316,317.219696 735.907898,317.129333 
	C735.575623,317.127380 735.243469,317.112396 734.452271,317.061768 
z"/>
<path fill="#EEEEEE" opacity="1.000000" stroke="none" 
	d="
M806.147034,287.699524 
	C806.911682,292.166321 807.417542,296.489716 807.434448,300.815063 
	C807.437134,301.489563 805.243774,302.679657 804.010132,302.758453 
	C800.064026,303.010468 796.091614,302.852020 791.701416,302.852020 
	C791.701416,297.781250 791.701416,292.921814 791.701416,287.556763 
	C796.299744,287.556763 801.013611,287.556763 806.147034,287.699524 
z"/>
</svg>