<svg version="1.1" id="Layer_1" xmlns="http://www.w3.org/2000/svg" xmlns:xlink="http://www.w3.org/1999/xlink" x="0px" y="0px"
	 width="100%" viewBox="0 0 2000 651" enable-background="new 0 0 2000 651" xml:space="preserve">
<path fill="#000000" opacity="1.000000" stroke="none" 
	d="
M1286.000000,652.000000 
	C857.333313,652.000000 429.166656,652.000000 1.000000,652.000000 
	C1.000000,435.000000 1.000000,218.000000 1.000000,1.000000 
	C667.666687,1.000000 1334.333374,1.000000 2001.000000,1.000000 
	C2001.000000,218.000000 2001.000000,435.000000 2001.000000,652.000000 
	C1762.833374,652.000000 1524.666626,652.000000 1286.000000,652.000000 
M1132.470215,389.921783 
	C1120.139526,389.948761 1107.792725,389.586700 1095.481689,390.090851 
	C1075.377930,390.914154 1056.574341,402.455444 1051.575317,422.270874 
	C1051.427002,422.858795 1050.937134,423.360565 1050.500610,424.076141 
	C1045.030640,404.242920 1031.548706,393.197815 1012.057312,391.036713 
	C996.407349,389.301483 980.462769,390.064178 964.648193,390.029327 
	C954.085999,390.006073 944.303772,393.103607 935.540833,399.066223 
	C926.557861,405.178619 921.080200,413.748444 918.539856,424.620911 
	C918.125549,423.786835 917.834473,423.367828 917.698730,422.903442 
	C912.047546,403.565460 898.415955,392.882782 879.152588,390.966797 
	C862.483521,389.308807 845.518616,389.529358 828.746216,390.285980 
	C808.377319,391.204803 792.780762,403.329773 787.099487,420.730499 
	C786.788452,421.683228 786.327820,422.587067 785.689697,424.099121 
	C780.043213,404.429810 766.998535,393.484772 748.139587,391.200317 
	C732.848999,389.348175 717.223267,389.951324 701.748108,390.006104 
	C676.800598,390.094421 661.567017,401.173767 653.381348,424.689178 
	C647.819519,403.500580 633.191895,392.446472 612.527588,390.631622 
	C595.671143,389.151184 578.505310,389.363373 561.613708,390.639587 
	C545.376770,391.866302 532.202881,399.788879 524.600525,415.057312 
	C523.266968,417.735657 522.365967,420.629395 520.952698,424.216766 
	C514.804688,403.133301 500.314758,392.385193 480.175690,390.611603 
	C463.482269,389.141449 446.471008,389.240204 429.757446,390.588531 
	C411.526215,392.059296 397.368103,401.087708 390.455078,419.104675 
	C389.783081,420.856079 389.286499,422.674774 388.557800,424.928192 
	C383.461914,405.034424 370.477295,393.526337 351.433685,391.345886 
	C333.667786,389.311707 315.452301,389.296356 297.584351,390.541016 
	C274.874756,392.122955 254.403946,408.241180 255.673492,437.597443 
	C256.536804,457.559967 256.313293,477.604248 255.714874,497.586212 
	C255.001709,521.398926 271.276520,539.295898 293.853424,541.737610 
	C311.476532,543.643677 329.522949,543.734741 347.211304,542.392578 
	C368.080750,540.808960 382.902466,529.758240 388.516815,508.298981 
	C388.813660,509.015869 389.121399,509.598694 389.301971,510.218536 
	C394.881470,529.370667 408.423615,539.977112 427.437012,541.926819 
	C444.260864,543.652039 461.439545,543.737854 478.325287,542.572510 
	C498.862640,541.155090 514.219482,531.198975 520.371155,510.186188 
	C520.464294,509.868042 521.089783,509.705811 521.501953,509.448883 
	C526.674316,527.253113 539.448120,539.929565 557.753479,541.640381 
	C575.915710,543.337830 594.325378,542.505493 612.626343,542.498962 
	C616.038391,542.497742 619.536438,541.428040 622.846863,540.382874 
	C638.817505,535.340393 649.242615,524.848755 653.412415,508.033600 
	C659.976990,528.748718 671.724426,540.077148 692.951233,542.011658 
	C710.928711,543.650024 729.301025,543.520874 747.282410,541.848694 
	C766.362244,540.074280 779.774902,529.175171 785.307678,510.020172 
	C785.350708,509.871124 785.782898,509.834503 786.274536,509.659607 
	C792.240051,530.204346 807.008789,540.725403 827.351562,542.437622 
	C843.727417,543.815979 860.401733,543.813965 876.779724,542.452698 
	C897.209106,540.754639 911.962952,530.215515 917.914490,509.543427 
	C918.005005,509.229034 918.316956,508.978394 918.553284,508.660645 
	C923.647095,528.129272 936.704651,539.541870 955.732056,541.674072 
	C973.503601,543.665588 991.734131,543.746460 1009.579468,542.341675 
	C1031.823730,540.590759 1045.400146,528.176331 1050.466919,508.432068 
	C1050.830811,509.152466 1051.213745,509.692688 1051.391235,510.293610 
	C1057.107910,529.643372 1070.873413,540.182251 1090.099121,542.021545 
	C1107.104126,543.648499 1124.439941,543.694214 1141.492310,542.491028 
	C1164.615601,540.859375 1184.901611,525.028809 1183.819336,494.702728 
	C1183.106445,474.728302 1183.662354,454.707794 1183.693848,434.707947 
	C1183.709961,424.396973 1181.241821,414.890137 1174.442993,406.918854 
	C1163.699951,394.323395 1149.481567,389.893372 1132.470215,389.921783 
M1746.162231,491.498230 
	C1746.162109,472.837433 1745.713989,454.163330 1746.269043,435.519043 
	C1747.066040,408.747803 1727.649658,393.039703 1708.297729,391.229797 
	C1690.467529,389.562195 1672.287476,389.171417 1654.456665,390.620361 
	C1633.878418,392.292572 1619.113770,403.303833 1613.546753,424.458221 
	C1613.297363,424.003845 1612.993042,423.627716 1612.869873,423.199524 
	C1607.178955,403.402130 1593.193848,392.592957 1573.556763,390.872467 
	C1555.894165,389.324982 1537.862061,389.294434 1520.218018,390.968323 
	C1501.075806,392.784363 1487.209106,403.345276 1481.612183,422.788818 
	C1481.522949,423.098541 1480.894775,423.253113 1480.543701,423.464508 
	C1475.243896,404.608337 1462.338867,393.674377 1443.745361,391.276642 
	C1428.484131,389.308594 1412.844971,389.969940 1397.374268,389.995850 
	C1372.017090,390.038361 1357.124756,400.753113 1348.515015,424.486084 
	C1341.332275,403.446106 1329.710449,392.675842 1307.691406,390.632050 
	C1290.854370,389.069244 1273.679688,389.332703 1256.791138,390.598053 
	C1236.049194,392.152069 1214.277588,407.040558 1215.599731,437.796783 
	C1216.457642,457.753967 1216.188232,477.789368 1215.654663,497.769165 
	C1214.977173,523.140076 1233.116333,539.549805 1253.910522,541.831360 
	C1269.067993,543.494446 1284.494263,542.741516 1299.801880,542.990173 
	C1310.879272,543.170105 1321.236450,540.571899 1330.568237,534.453857 
	C1340.011841,528.262573 1345.709717,519.425842 1348.475586,507.759155 
	C1354.306030,529.735901 1369.164795,540.651978 1389.998901,542.426086 
	C1406.528809,543.833679 1423.332764,543.509399 1439.912964,542.411682 
	C1455.616211,541.371887 1468.526367,534.000916 1476.498779,519.720093 
	C1478.282349,516.525146 1479.406128,512.961914 1480.862305,509.500366 
	C1481.237793,509.826080 1481.607422,509.985474 1481.677490,510.230408 
	C1487.171753,529.474426 1500.799805,540.033081 1519.792847,541.920715 
	C1537.107788,543.641663 1554.767090,543.521606 1572.157593,542.399353 
	C1589.227661,541.297729 1602.842163,533.001160 1610.376831,516.740601 
	C1611.600342,514.100281 1612.404053,511.265350 1613.496094,508.260956 
	C1618.709473,528.253479 1631.982544,539.717712 1651.483887,541.788147 
	C1668.944824,543.641907 1686.803955,543.688293 1704.334473,542.419128 
	C1723.403931,541.038513 1738.320190,531.619568 1744.243286,512.242981 
	C1746.137939,506.044617 1745.591675,499.100128 1746.162231,491.498230 
M269.630463,353.766449 
	C756.125916,353.766968 1242.621338,353.767548 1729.116821,353.766907 
	C1731.283325,353.766907 1733.494141,354.022430 1735.606567,353.679993 
	C1739.182129,353.100342 1742.819336,352.464447 1746.180664,351.191925 
	C1747.752563,350.596771 1749.823486,348.377930 1749.722290,347.042328 
	C1749.593140,345.335632 1747.775391,342.784760 1746.197388,342.343750 
	C1741.627930,341.066833 1736.814453,340.011169 1732.096558,340.010162 
	C1246.268066,339.908356 760.439514,339.911743 274.610962,339.911591 
	C271.277893,339.911591 267.899933,339.619720 264.624420,340.064240 
	C261.388245,340.503357 258.005676,341.216797 255.135590,342.685699 
	C250.741241,344.934814 250.691910,348.973816 255.213120,350.828552 
	C259.397888,352.545258 264.164642,352.843353 269.630463,353.766449 
M977.500000,303.791046 
	C1025.812622,303.789429 1074.125488,303.735687 1122.437744,303.874847 
	C1126.786743,303.887390 1128.114990,302.740021 1128.103638,298.274872 
	C1127.952515,238.467575 1127.950073,178.659698 1128.070801,118.852295 
	C1128.079590,114.488464 1127.241577,112.844360 1122.403687,112.879654 
	C1090.752319,113.110527 1059.098267,112.996567 1027.445190,113.015610 
	C1025.848633,113.016571 1024.252075,113.205582 1022.211792,113.335236 
	C1022.211792,118.587799 1022.557739,123.418839 1022.118286,128.177353 
	C1021.640808,133.347504 1023.574890,134.673615 1028.571777,134.625549 
	C1052.725952,134.393173 1076.884277,134.625961 1101.039062,134.428619 
	C1105.668945,134.390808 1106.979736,135.826233 1106.962769,140.425797 
	C1106.795532,185.905701 1106.781494,231.386612 1106.935059,276.866547 
	C1106.950195,281.354279 1105.579468,282.493011 1101.264404,282.484558 
	C1041.457031,282.367096 981.649231,282.365173 921.841919,282.499329 
	C917.481873,282.509094 916.598694,280.926575 916.635315,276.974548 
	C916.796143,259.650391 916.680420,242.323685 916.665283,224.997910 
	C916.663757,223.210968 916.665100,221.424026 916.665100,218.975296 
	C910.804993,218.975296 905.512451,219.233749 900.258545,218.893936 
	C896.016052,218.619537 894.973450,220.162292 895.002319,224.261154 
	C895.176941,249.082230 895.142883,273.905579 895.007080,298.727234 
	C894.986328,302.524780 895.934448,303.915009 900.033386,303.884857 
	C925.521118,303.697418 951.010925,303.790619 977.500000,303.791046 
M980.020447,106.388580 
	C980.012878,102.889740 979.836426,99.380653 980.047729,95.895088 
	C980.238831,92.743843 978.914978,91.815880 975.955566,91.934639 
	C971.630676,92.108192 967.281433,92.179832 962.965576,91.917389 
	C959.496338,91.706444 958.679504,93.212517 958.815491,96.321037 
	C959.004578,100.644577 959.028442,104.993378 958.754089,109.307899 
	C958.674500,110.559723 957.381409,112.738914 956.561218,112.778809 
	C950.466858,113.075195 944.351562,112.939583 937.704224,112.939583 
	C937.704224,106.979851 937.525513,101.679649 937.766479,96.398590 
	C937.929504,92.827110 936.573914,91.702255 933.128601,91.921371 
	C929.145813,92.174675 925.120300,92.200890 921.140686,91.927750 
	C917.500610,91.677933 915.906799,92.789864 916.210327,96.637604 
	C916.484680,100.115265 915.968994,103.665901 916.359863,107.121201 
	C916.924377,112.110748 914.878662,113.465645 910.178162,113.089462 
	C905.290527,112.698318 900.347290,113.002281 894.943909,113.002281 
	C894.943909,127.443184 894.943909,141.031769 894.943909,155.239304 
	C888.989990,155.239304 883.540527,155.346954 878.098206,155.196014 
	C875.169739,155.114807 873.914551,156.006226 873.953308,159.152847 
	C874.096863,170.813904 874.075928,182.478012 873.992493,194.140091 
	C873.972534,196.929398 874.979980,198.016434 877.793030,197.926498 
	C882.286560,197.782806 886.795532,197.755615 891.284668,197.965195 
	C894.474487,198.114136 895.296692,196.735397 895.175964,193.811172 
	C894.997375,189.486938 895.229919,185.147003 895.113831,180.818420 
	C895.043274,178.185867 895.804626,176.726471 898.731140,176.794662 
	C903.393738,176.903336 908.063293,176.929825 912.724487,176.797501 
	C915.700317,176.713043 916.394714,178.179398 916.316711,180.802979 
	C916.188049,185.131195 916.342590,189.467361 916.241028,193.796982 
	C916.172974,196.697067 917.187622,198.069321 920.317810,197.931732 
	C924.807678,197.734390 929.317871,197.734192 933.808716,197.914169 
	C937.032104,198.043304 937.815308,196.479416 937.742493,193.655075 
	C937.630981,189.326065 937.819885,184.988434 937.673767,180.661484 
	C937.580505,177.901291 938.574585,176.713776 941.407227,176.791031 
	C946.068909,176.918137 950.758545,176.584106 955.386597,176.999390 
	C956.635071,177.111404 958.584351,179.146225 958.697266,180.431503 
	C959.104126,185.061172 958.920593,189.748642 958.845642,194.412415 
	C958.804993,196.942413 959.804443,197.999863 962.404907,197.926468 
	C967.066284,197.794907 971.737732,197.779877 976.397827,197.932526 
	C979.355957,198.029404 980.108765,196.635895 980.039917,193.984924 
	C979.923096,189.489624 979.854065,184.978806 980.129333,180.496841 
	C980.205566,179.255157 981.519348,177.093567 982.348145,177.053192 
	C988.421204,176.757217 994.515259,176.893539 1001.028809,176.893539 
	C1001.028809,183.120209 1001.123840,188.590363 1000.988647,194.054825 
	C1000.920959,196.789871 1001.796875,198.003296 1004.691406,197.898254 
	C1009.016663,197.741257 1013.362732,197.708237 1017.681335,197.951874 
	C1021.330139,198.157715 1022.712158,196.903290 1022.647217,193.129379 
	C1022.457825,182.136322 1022.411194,171.133957 1022.667664,160.143616 
	C1022.764771,155.979889 1021.106262,155.005020 1017.365784,155.173340 
	C1012.113525,155.409683 1006.842712,155.233047 1000.907593,155.233047 
	C1000.907593,140.749329 1000.907593,127.038773 1000.907593,112.792664 
	C993.647522,112.792664 987.062317,112.792664 980.020386,112.792664 
	C980.020386,110.606743 980.020386,108.977760 980.020447,106.388580 
M747.500000,286.041870 
	C678.584534,286.041870 609.669067,286.041870 540.595825,286.041870 
	C540.595825,290.917084 540.595825,295.302734 540.595825,299.727905 
	C641.810364,299.727905 742.690186,299.727905 843.665649,299.727905 
	C843.665649,295.093872 843.665649,290.707031 843.665649,286.041870 
	C811.749573,286.041870 780.124817,286.041870 747.500000,286.041870 
M1259.500000,299.960693 
	C1326.749390,299.960693 1393.998779,299.960693 1461.403442,299.960693 
	C1461.403442,295.079407 1461.403442,290.694794 1461.403442,286.276062 
	C1360.187988,286.276062 1259.308105,286.276062 1158.335083,286.276062 
	C1158.335083,290.911377 1158.335083,295.298309 1158.335083,299.960693 
	C1191.918213,299.960693 1225.209106,299.960693 1259.500000,299.960693 
z"/>
<path fill="#FCFCFC" opacity="1.000000" stroke="none" 
	d="
M1132.963745,389.922180 
	C1149.481567,389.893372 1163.699951,394.323395 1174.442993,406.918854 
	C1181.241821,414.890137 1183.709961,424.396973 1183.693848,434.707947 
	C1183.662354,454.707794 1183.106445,474.728302 1183.819336,494.702728 
	C1184.901611,525.028809 1164.615601,540.859375 1141.492310,542.491028 
	C1124.439941,543.694214 1107.104126,543.648499 1090.099121,542.021545 
	C1070.873413,540.182251 1057.107910,529.643372 1051.391235,510.293610 
	C1051.213745,509.692688 1050.830811,509.152466 1050.466919,508.432068 
	C1045.400146,528.176331 1031.823730,540.590759 1009.579468,542.341675 
	C991.734131,543.746460 973.503601,543.665588 955.732056,541.674072 
	C936.704651,539.541870 923.647095,528.129272 918.553284,508.660645 
	C918.316956,508.978394 918.005005,509.229034 917.914490,509.543427 
	C911.962952,530.215515 897.209106,540.754639 876.779724,542.452698 
	C860.401733,543.813965 843.727417,543.815979 827.351562,542.437622 
	C807.008789,540.725403 792.240051,530.204346 786.274536,509.659607 
	C785.782898,509.834503 785.350708,509.871124 785.307678,510.020172 
	C779.774902,529.175171 766.362244,540.074280 747.282410,541.848694 
	C729.301025,543.520874 710.928711,543.650024 692.951233,542.011658 
	C671.724426,540.077148 659.976990,528.748718 653.412415,508.033600 
	C649.242615,524.848755 638.817505,535.340393 622.846863,540.382874 
	C619.536438,541.428040 616.038391,542.497742 612.626343,542.498962 
	C594.325378,542.505493 575.915710,543.337830 557.753479,541.640381 
	C539.448120,539.929565 526.674316,527.253113 521.501953,509.448883 
	C521.089783,509.705811 520.464294,509.868042 520.371155,510.186188 
	C514.219482,531.198975 498.862640,541.155090 478.325287,542.572510 
	C461.439545,543.737854 444.260864,543.652039 427.437012,541.926819 
	C408.423615,539.977112 394.881470,529.370667 389.301971,510.218536 
	C389.121399,509.598694 388.813660,509.015869 388.516815,508.298981 
	C382.902466,529.758240 368.080750,540.808960 347.211304,542.392578 
	C329.522949,543.734741 311.476532,543.643677 293.853424,541.737610 
	C271.276520,539.295898 255.001709,521.398926 255.714874,497.586212 
	C256.313293,477.604248 256.536804,457.559967 255.673492,437.597443 
	C254.403946,408.241180 274.874756,392.122955 297.584351,390.541016 
	C315.452301,389.296356 333.667786,389.311707 351.433685,391.345886 
	C370.477295,393.526337 383.461914,405.034424 388.557800,424.928192 
	C389.286499,422.674774 389.783081,420.856079 390.455078,419.104675 
	C397.368103,401.087708 411.526215,392.059296 429.757446,390.588531 
	C446.471008,389.240204 463.482269,389.141449 480.175690,390.611603 
	C500.314758,392.385193 514.804688,403.133301 520.952698,424.216766 
	C522.365967,420.629395 523.266968,417.735657 524.600525,415.057312 
	C532.202881,399.788879 545.376770,391.866302 561.613708,390.639587 
	C578.505310,389.363373 595.671143,389.151184 612.527588,390.631622 
	C633.191895,392.446472 647.819519,403.500580 653.381348,424.689178 
	C661.567017,401.173767 676.800598,390.094421 701.748108,390.006104 
	C717.223267,389.951324 732.848999,389.348175 748.139587,391.200317 
	C766.998535,393.484772 780.043213,404.429810 785.689697,424.099121 
	C786.327820,422.587067 786.788452,421.683228 787.099487,420.730499 
	C792.780762,403.329773 808.377319,391.204803 828.746216,390.285980 
	C845.518616,389.529358 862.483521,389.308807 879.152588,390.966797 
	C898.415955,392.882782 912.047546,403.565460 917.698730,422.903442 
	C917.834473,423.367828 918.125549,423.786835 918.539856,424.620911 
	C921.080200,413.748444 926.557861,405.178619 935.540833,399.066223 
	C944.303772,393.103607 954.085999,390.006073 964.648193,390.029327 
	C980.462769,390.064178 996.407349,389.301483 1012.057312,391.036713 
	C1031.548706,393.197815 1045.030640,404.242920 1050.500610,424.076141 
	C1050.937134,423.360565 1051.427002,422.858795 1051.575317,422.270874 
	C1056.574341,402.455444 1075.377930,390.914154 1095.481689,390.090851 
	C1107.792725,389.586700 1120.139526,389.948761 1132.963745,389.922180 
M690.443420,414.160309 
	C690.279358,424.472778 689.938599,434.786255 689.998169,445.097443 
	C690.065308,456.732178 690.276062,468.375610 690.857666,479.993591 
	C691.134888,485.531006 696.511353,491.272125 701.924255,491.389404 
	C717.362976,491.723969 732.816101,491.557129 748.259216,491.314087 
	C750.127563,491.284698 752.100525,489.771637 753.799927,488.615417 
	C759.698669,484.602234 759.802490,478.211365 759.904663,472.113586 
	C760.122131,459.128967 760.077454,446.136932 759.927368,433.150391 
	C759.846863,426.182007 759.543579,419.199432 758.932434,412.259247 
	C758.458984,406.882599 752.771606,401.146393 747.435120,401.048492 
	C732.670471,400.777618 717.892639,400.704895 703.130859,401.036224 
	C696.399475,401.187317 691.470764,406.604156 690.443420,414.160309 
M847.500000,399.952820 
	C839.886108,399.952820 832.272278,399.952820 824.590088,399.952820 
	C824.590088,431.003754 824.590088,461.544342 824.590088,492.270386 
	C828.536072,492.270386 832.145203,492.270386 836.359131,492.270386 
	C836.359131,479.854034 836.359131,467.629181 836.359131,455.138885 
	C844.940125,455.138885 852.926208,454.921356 860.895630,455.192200 
	C871.643311,455.557434 875.446777,458.809448 875.053162,468.967377 
	C874.753479,476.702728 874.993652,484.459045 874.993652,492.240173 
	C879.282532,492.240173 882.894470,492.240173 886.940857,492.240173 
	C886.940857,483.722137 886.956604,475.432526 886.936584,467.142944 
	C886.915466,458.365784 883.612671,453.639252 875.475281,450.596405 
	C873.977417,450.036316 872.521179,449.364868 870.617310,448.564819 
	C872.719238,447.538605 874.272217,446.423401 875.994934,446.001709 
	C883.106323,444.261047 885.216614,438.407440 885.737854,432.555634 
	C886.336182,425.838348 885.581543,418.931091 884.777527,412.182281 
	C884.223633,407.532806 877.024109,401.208527 872.423645,400.911133 
	C864.461731,400.396393 856.475830,400.252350 847.500000,399.952820 
M481.832336,400.607147 
	C468.708557,400.650269 455.557098,400.188568 442.470184,400.904999 
	C432.935608,401.426941 428.738373,406.144073 428.042725,415.724304 
	C427.538696,422.665527 427.605377,429.706848 428.133301,436.649078 
	C428.759552,444.883972 433.310333,449.694763 441.509064,450.422729 
	C450.110504,451.186462 458.799652,450.934906 467.447418,451.219360 
	C470.428040,451.317352 473.480560,451.366455 476.341614,452.076782 
	C477.815491,452.442719 479.957214,454.130890 480.054474,455.359619 
	C480.576202,461.949280 480.695892,468.583374 480.649567,475.199982 
	C480.626831,478.446350 478.848297,480.275604 475.234436,480.123535 
	C472.425476,480.005371 469.592834,480.555542 466.775543,480.510101 
	C455.709595,480.331573 444.645569,480.034821 433.352692,479.776733 
	C432.583252,483.164124 431.747192,486.844971 430.830536,490.880585 
	C448.008087,493.091888 464.914093,493.240967 481.833527,491.310303 
	C485.778900,490.860077 491.638000,485.324768 491.891083,481.541656 
	C492.456146,473.094727 492.934875,464.618103 492.863129,456.158569 
	C492.776855,445.991943 485.809692,439.404663 476.283752,439.847626 
	C469.148285,440.179413 461.974213,439.586121 454.816742,439.558899 
	C439.410095,439.500305 438.855652,439.281799 439.313965,423.625092 
	C439.645996,412.281860 439.825043,412.211853 450.941132,411.987793 
	C462.968079,411.745331 475.011505,412.318634 487.453461,412.543488 
	C488.085571,409.656555 488.891815,405.974518 489.810394,401.779419 
	C487.214386,401.405182 484.961060,401.080322 481.832336,400.607147 
M1130.473389,411.883545 
	C1136.687256,412.329529 1142.901245,412.775513 1149.383667,413.240784 
	C1150.176025,409.649048 1150.986816,405.974335 1151.849121,402.065582 
	C1150.876831,401.761414 1150.116089,401.324402 1149.348633,401.312775 
	C1134.408081,401.086884 1119.446289,400.364807 1104.532837,400.921173 
	C1095.020020,401.276031 1090.750610,406.243225 1090.100342,415.725098 
	C1089.623535,422.676544 1089.659058,429.721710 1090.195801,436.668732 
	C1090.821167,444.762878 1095.548462,449.396881 1103.579346,450.472168 
	C1107.686279,451.022003 1111.871094,451.030243 1116.024414,451.183441 
	C1123.330811,451.453033 1130.639160,451.735718 1137.948975,451.826355 
	C1140.809937,451.861877 1142.426392,453.047668 1142.468872,455.817871 
	C1142.573242,462.599976 1142.714478,469.398712 1142.296387,476.157074 
	C1142.212891,477.508850 1139.824097,479.628052 1138.304077,479.814880 
	C1133.206909,480.441528 1128.019043,480.566406 1122.871338,480.492950 
	C1113.808228,480.363708 1104.749146,479.946259 1095.489136,479.642975 
	C1094.681152,483.170929 1093.839844,486.844635 1092.910889,490.901062 
	C1109.939209,493.063568 1126.681030,493.218658 1143.436646,491.396912 
	C1148.784790,490.815430 1152.981812,486.849030 1153.583740,482.484497 
	C1154.889404,473.016235 1155.142700,463.242523 1154.418701,453.700500 
	C1153.719849,444.486603 1148.650391,440.500702 1139.378662,440.052338 
	C1130.901855,439.642426 1122.402100,439.726746 1113.914307,439.514069 
	C1111.427979,439.451782 1108.805542,439.542267 1106.513184,438.769196 
	C1104.834473,438.203094 1102.450439,436.420319 1102.353394,435.040955 
	C1101.913818,428.799835 1101.967163,422.496185 1102.361450,416.247711 
	C1102.440186,414.999420 1104.713989,412.979645 1106.094727,412.874268 
	C1113.870239,412.280670 1121.682373,412.163300 1130.473389,411.883545 
M326.505737,411.886902 
	C336.258911,411.886902 346.012085,411.886902 355.688843,411.886902 
	C355.688843,407.533295 355.688843,403.929962 355.688843,400.276672 
	C337.400543,400.276672 319.355591,400.276672 301.240265,400.276672 
	C301.240265,431.043213 301.240265,461.485077 301.240265,492.166321 
	C319.948822,492.166321 338.498444,492.166321 356.989136,492.166321 
	C356.989136,488.131134 356.989136,484.419678 356.989136,480.395142 
	C342.155457,480.395142 327.721619,480.395142 313.178162,480.395142 
	C313.178162,470.841187 313.178162,461.614532 313.178162,452.025940 
	C325.562439,452.025940 337.651581,452.025940 349.924194,452.025940 
	C349.924194,448.073822 349.924194,444.487854 349.924194,440.323761 
	C337.532379,440.323761 325.326660,440.323761 313.215515,440.323761 
	C313.215515,430.511383 313.215515,421.280731 313.215515,411.886902 
	C317.537292,411.886902 321.522461,411.886902 326.505737,411.886902 
M574.914246,484.387604 
	C574.914246,476.128754 574.914246,467.869904 574.914246,459.462708 
	C581.564941,459.462708 587.559814,459.608368 593.544556,459.424255 
	C600.351929,459.214844 607.168884,458.907898 613.945496,458.262695 
	C618.150940,457.862305 623.841492,452.127747 623.927246,447.940094 
	C624.174744,435.851196 624.215393,423.748627 623.904541,411.662567 
	C623.785767,407.044006 617.600220,401.230438 612.932495,401.068420 
	C597.645874,400.537781 582.349121,400.295227 567.055603,399.976746 
	C565.800354,399.950592 564.539612,400.187378 563.312012,400.299194 
	C563.312012,431.084534 563.312012,461.501434 563.312012,492.146301 
	C567.238342,492.146301 570.967834,492.146301 574.914246,492.146301 
	C574.914246,489.666504 574.914246,487.509613 574.914246,484.387604 
M980.500000,399.953003 
	C973.221313,399.953003 965.942627,399.953003 958.619141,399.953003 
	C958.619141,404.200836 958.619141,407.913879 958.619141,411.968201 
	C967.434692,411.968201 975.882141,411.968201 984.789124,411.968201 
	C984.789124,438.887115 984.789124,465.463684 984.789124,492.159119 
	C989.008118,492.159119 992.756958,492.159119 996.952148,492.159119 
	C996.952148,465.279175 996.952148,438.710510 996.952148,411.755310 
	C1005.818359,411.755310 1014.240662,411.755310 1022.717224,411.755310 
	C1022.717224,407.627960 1022.717224,403.898743 1022.717224,399.953003 
	C1008.786255,399.953003 995.143127,399.953003 980.500000,399.953003 
z"/>
<path fill="#FCFCFC" opacity="1.000000" stroke="none" 
	d="
M1746.162231,491.997620 
	C1745.591675,499.100128 1746.137939,506.044617 1744.243286,512.242981 
	C1738.320190,531.619568 1723.403931,541.038513 1704.334473,542.419128 
	C1686.803955,543.688293 1668.944824,543.641907 1651.483887,541.788147 
	C1631.982544,539.717712 1618.709473,528.253479 1613.496094,508.260956 
	C1612.404053,511.265350 1611.600342,514.100281 1610.376831,516.740601 
	C1602.842163,533.001160 1589.227661,541.297729 1572.157593,542.399353 
	C1554.767090,543.521606 1537.107788,543.641663 1519.792847,541.920715 
	C1500.799805,540.033081 1487.171753,529.474426 1481.677490,510.230408 
	C1481.607422,509.985474 1481.237793,509.826080 1480.862305,509.500366 
	C1479.406128,512.961914 1478.282349,516.525146 1476.498779,519.720093 
	C1468.526367,534.000916 1455.616211,541.371887 1439.912964,542.411682 
	C1423.332764,543.509399 1406.528809,543.833679 1389.998901,542.426086 
	C1369.164795,540.651978 1354.306030,529.735901 1348.475586,507.759155 
	C1345.709717,519.425842 1340.011841,528.262573 1330.568237,534.453857 
	C1321.236450,540.571899 1310.879272,543.170105 1299.801880,542.990173 
	C1284.494263,542.741516 1269.067993,543.494446 1253.910522,541.831360 
	C1233.116333,539.549805 1214.977173,523.140076 1215.654663,497.769165 
	C1216.188232,477.789368 1216.457642,457.753967 1215.599731,437.796783 
	C1214.277588,407.040558 1236.049194,392.152069 1256.791138,390.598053 
	C1273.679688,389.332703 1290.854370,389.069244 1307.691406,390.632050 
	C1329.710449,392.675842 1341.332275,403.446106 1348.515015,424.486084 
	C1357.124756,400.753113 1372.017090,390.038361 1397.374268,389.995850 
	C1412.844971,389.969940 1428.484131,389.308594 1443.745361,391.276642 
	C1462.338867,393.674377 1475.243896,404.608337 1480.543701,423.464508 
	C1480.894775,423.253113 1481.522949,423.098541 1481.612183,422.788818 
	C1487.209106,403.345276 1501.075806,392.784363 1520.218018,390.968323 
	C1537.862061,389.294434 1555.894165,389.324982 1573.556763,390.872467 
	C1593.193848,392.592957 1607.178955,403.402130 1612.869873,423.199524 
	C1612.993042,423.627716 1613.297363,424.003845 1613.546753,424.458221 
	C1619.113770,403.303833 1633.878418,392.292572 1654.456665,390.620361 
	C1672.287476,389.171417 1690.467529,389.562195 1708.297729,391.229797 
	C1727.649658,393.039703 1747.066040,408.747803 1746.269043,435.519043 
	C1745.713989,454.163330 1746.162109,472.837433 1746.162231,491.997620 
M1532.289673,400.709747 
	C1523.499268,401.616852 1518.245239,405.979279 1518.083496,414.657806 
	C1517.680908,436.254791 1517.873657,457.867889 1518.174805,479.469666 
	C1518.258423,485.460663 1523.903442,491.341400 1529.935913,491.475006 
	C1545.203491,491.813293 1560.487549,491.587891 1575.760010,491.314026 
	C1577.625977,491.280548 1579.601562,489.772980 1581.286621,488.603180 
	C1587.305786,484.424133 1587.326294,477.871521 1587.387085,471.601379 
	C1587.548462,454.958435 1587.504395,438.312164 1587.367798,421.668671 
	C1587.338135,418.039978 1587.590820,413.833405 1585.912598,410.936096 
	C1583.700195,407.116669 1579.923828,401.829895 1576.445923,401.531464 
	C1562.095337,400.300232 1547.603516,400.715881 1532.289673,400.709747 
M1292.489746,480.538300 
	C1282.067871,480.269623 1271.646118,480.000946 1260.863647,479.722992 
	C1260.125000,483.024170 1259.279175,486.804504 1258.120239,491.983704 
	C1274.192993,491.983704 1289.457520,492.293304 1304.701782,491.872498 
	C1314.508667,491.601807 1319.001465,487.076385 1320.000854,477.259644 
	C1320.655396,470.830627 1320.775757,464.303955 1320.565552,457.839569 
	C1320.189087,446.265411 1314.805542,439.304626 1302.497314,439.782410 
	C1297.685303,439.969238 1292.852173,439.670258 1288.030396,439.528931 
	C1282.715454,439.373169 1277.401733,439.165466 1272.089233,438.938171 
	C1269.451538,438.825348 1267.739380,437.670441 1267.598389,434.774994 
	C1267.396851,430.637054 1266.745972,426.482208 1266.963257,422.370361 
	C1267.502563,412.167938 1267.619995,412.320801 1277.185303,412.035461 
	C1289.568359,411.666077 1301.983521,412.374542 1314.895752,412.629028 
	C1315.527100,409.749207 1316.362549,405.938660 1317.311523,401.610443 
	C1299.574097,399.189667 1282.299316,398.761047 1265.219360,401.626129 
	C1261.733398,402.210876 1256.940186,407.555450 1256.477783,411.181396 
	C1255.252319,420.788086 1255.201294,430.774323 1256.519043,440.357056 
	C1257.013184,443.949463 1262.057007,448.140289 1265.970215,449.718109 
	C1270.519531,451.552490 1276.098999,450.933441 1281.241089,451.171722 
	C1288.705322,451.517609 1296.176880,451.773987 1303.647827,451.866577 
	C1306.374146,451.900360 1307.735718,453.150787 1307.868774,455.612274 
	C1308.190918,461.567993 1308.508057,467.536102 1308.455566,473.495911 
	C1308.417236,477.830811 1306.489746,480.656708 1301.447388,480.274170 
	C1298.814941,480.074463 1296.140259,480.432312 1292.489746,480.538300 
M1420.500000,450.925537 
	C1428.098633,450.925537 1435.697266,450.925537 1443.797363,450.925537 
	C1443.797363,465.045593 1443.797363,478.604156 1443.797363,492.098389 
	C1447.861694,492.098389 1451.405518,492.098389 1454.837402,492.098389 
	C1454.837402,461.203613 1454.837402,430.669800 1454.837402,400.274902 
	C1450.919434,400.274902 1447.339111,400.274902 1443.378174,400.274902 
	C1443.378174,413.335144 1443.378174,426.081726 1443.378174,438.714813 
	C1427.750488,438.714813 1412.514526,438.714813 1396.892090,438.714813 
	C1396.892090,425.659698 1396.892090,412.921082 1396.892090,400.320557 
	C1392.770752,400.320557 1389.052246,400.320557 1385.373291,400.320557 
	C1385.373291,431.102539 1385.373291,461.518219 1385.373291,492.188293 
	C1389.307129,492.188293 1393.015381,492.188293 1397.163208,492.188293 
	C1397.163208,478.358734 1397.163208,464.786896 1397.163208,450.925537 
	C1404.900146,450.925537 1412.200073,450.925537 1420.500000,450.925537 
M1711.306274,404.106262 
	C1709.162720,403.055206 1707.057739,401.190552 1704.869385,401.087067 
	C1692.083984,400.482758 1679.279663,400.270966 1666.480591,399.972687 
	C1662.882568,399.888855 1659.280762,399.959930 1655.942139,399.959930 
	C1655.942139,431.137024 1655.942139,461.686249 1655.942139,492.278259 
	C1659.785767,492.278259 1663.228394,492.278259 1667.138428,492.278259 
	C1667.138428,481.378235 1667.138428,470.643890 1667.138428,459.448242 
	C1670.061157,459.448242 1672.530884,459.502533 1674.997437,459.438782 
	C1684.974976,459.180847 1694.964478,459.107239 1704.923096,458.516510 
	C1710.247192,458.200684 1715.905273,452.983337 1716.167358,447.774933 
	C1716.734253,436.510132 1716.716187,425.210876 1716.720337,413.925629 
	C1716.721802,410.141785 1715.124390,406.858246 1711.306274,404.106262 
z"/>
<path fill="#F9F9F9" opacity="1.000000" stroke="none" 
	d="
M269.152771,353.766327 
	C264.164642,352.843353 259.397888,352.545258 255.213120,350.828552 
	C250.691910,348.973816 250.741241,344.934814 255.135590,342.685699 
	C258.005676,341.216797 261.388245,340.503357 264.624420,340.064240 
	C267.899933,339.619720 271.277893,339.911591 274.610962,339.911591 
	C760.439514,339.911743 1246.268066,339.908356 1732.096558,340.010162 
	C1736.814453,340.011169 1741.627930,341.066833 1746.197388,342.343750 
	C1747.775391,342.784760 1749.593140,345.335632 1749.722290,347.042328 
	C1749.823486,348.377930 1747.752563,350.596771 1746.180664,351.191925 
	C1742.819336,352.464447 1739.182129,353.100342 1735.606567,353.679993 
	C1733.494141,354.022430 1731.283325,353.766907 1729.116821,353.766907 
	C1242.621338,353.767548 756.125916,353.766968 269.152771,353.766327 
z"/>
<path fill="#F50303" opacity="1.000000" stroke="none" 
	d="
M977.000000,303.790894 
	C951.010925,303.790619 925.521118,303.697418 900.033386,303.884857 
	C895.934448,303.915009 894.986328,302.524780 895.007080,298.727234 
	C895.142883,273.905579 895.176941,249.082230 895.002319,224.261154 
	C894.973450,220.162292 896.016052,218.619537 900.258545,218.893936 
	C905.512451,219.233749 910.804993,218.975296 916.665100,218.975296 
	C916.665100,221.424026 916.663757,223.210968 916.665283,224.997910 
	C916.680420,242.323685 916.796143,259.650391 916.635315,276.974548 
	C916.598694,280.926575 917.481873,282.509094 921.841919,282.499329 
	C981.649231,282.365173 1041.457031,282.367096 1101.264404,282.484558 
	C1105.579468,282.493011 1106.950195,281.354279 1106.935059,276.866547 
	C1106.781494,231.386612 1106.795532,185.905701 1106.962769,140.425797 
	C1106.979736,135.826233 1105.668945,134.390808 1101.039062,134.428619 
	C1076.884277,134.625961 1052.725952,134.393173 1028.571777,134.625549 
	C1023.574890,134.673615 1021.640808,133.347504 1022.118286,128.177353 
	C1022.557739,123.418839 1022.211792,118.587799 1022.211792,113.335236 
	C1024.252075,113.205582 1025.848633,113.016571 1027.445190,113.015610 
	C1059.098267,112.996567 1090.752319,113.110527 1122.403687,112.879654 
	C1127.241577,112.844360 1128.079590,114.488464 1128.070801,118.852295 
	C1127.950073,178.659698 1127.952515,238.467575 1128.103638,298.274872 
	C1128.114990,302.740021 1126.786743,303.887390 1122.437744,303.874847 
	C1074.125488,303.735687 1025.812622,303.789429 977.000000,303.790894 
z"/>
<path fill="#F50303" opacity="1.000000" stroke="none" 
	d="
M980.020386,106.868683 
	C980.020386,108.977760 980.020386,110.606743 980.020386,112.792664 
	C987.062317,112.792664 993.647522,112.792664 1000.907593,112.792664 
	C1000.907593,127.038773 1000.907593,140.749329 1000.907593,155.233047 
	C1006.842712,155.233047 1012.113525,155.409683 1017.365784,155.173340 
	C1021.106262,155.005020 1022.764771,155.979889 1022.667664,160.143616 
	C1022.411194,171.133957 1022.457825,182.136322 1022.647217,193.129379 
	C1022.712158,196.903290 1021.330139,198.157715 1017.681335,197.951874 
	C1013.362732,197.708237 1009.016663,197.741257 1004.691406,197.898254 
	C1001.796875,198.003296 1000.920959,196.789871 1000.988647,194.054825 
	C1001.123840,188.590363 1001.028809,183.120209 1001.028809,176.893539 
	C994.515259,176.893539 988.421204,176.757217 982.348145,177.053192 
	C981.519348,177.093567 980.205566,179.255157 980.129333,180.496841 
	C979.854065,184.978806 979.923096,189.489624 980.039917,193.984924 
	C980.108765,196.635895 979.355957,198.029404 976.397827,197.932526 
	C971.737732,197.779877 967.066284,197.794907 962.404907,197.926468 
	C959.804443,197.999863 958.804993,196.942413 958.845642,194.412415 
	C958.920593,189.748642 959.104126,185.061172 958.697266,180.431503 
	C958.584351,179.146225 956.635071,177.111404 955.386597,176.999390 
	C950.758545,176.584106 946.068909,176.918137 941.407227,176.791031 
	C938.574585,176.713776 937.580505,177.901291 937.673767,180.661484 
	C937.819885,184.988434 937.630981,189.326065 937.742493,193.655075 
	C937.815308,196.479416 937.032104,198.043304 933.808716,197.914169 
	C929.317871,197.734192 924.807678,197.734390 920.317810,197.931732 
	C917.187622,198.069321 916.172974,196.697067 916.241028,193.796982 
	C916.342590,189.467361 916.188049,185.131195 916.316711,180.802979 
	C916.394714,178.179398 915.700317,176.713043 912.724487,176.797501 
	C908.063293,176.929825 903.393738,176.903336 898.731140,176.794662 
	C895.804626,176.726471 895.043274,178.185867 895.113831,180.818420 
	C895.229919,185.147003 894.997375,189.486938 895.175964,193.811172 
	C895.296692,196.735397 894.474487,198.114136 891.284668,197.965195 
	C886.795532,197.755615 882.286560,197.782806 877.793030,197.926498 
	C874.979980,198.016434 873.972534,196.929398 873.992493,194.140091 
	C874.075928,182.478012 874.096863,170.813904 873.953308,159.152847 
	C873.914551,156.006226 875.169739,155.114807 878.098206,155.196014 
	C883.540527,155.346954 888.989990,155.239304 894.943909,155.239304 
	C894.943909,141.031769 894.943909,127.443184 894.943909,113.002281 
	C900.347290,113.002281 905.290527,112.698318 910.178162,113.089462 
	C914.878662,113.465645 916.924377,112.110748 916.359863,107.121201 
	C915.968994,103.665901 916.484680,100.115265 916.210327,96.637604 
	C915.906799,92.789864 917.500610,91.677933 921.140686,91.927750 
	C925.120300,92.200890 929.145813,92.174675 933.128601,91.921371 
	C936.573914,91.702255 937.929504,92.827110 937.766479,96.398590 
	C937.525513,101.679649 937.704224,106.979851 937.704224,112.939583 
	C944.351562,112.939583 950.466858,113.075195 956.561218,112.778809 
	C957.381409,112.738914 958.674500,110.559723 958.754089,109.307899 
	C959.028442,104.993378 959.004578,100.644577 958.815491,96.321037 
	C958.679504,93.212517 959.496338,91.706444 962.965576,91.917389 
	C967.281433,92.179832 971.630676,92.108192 975.955566,91.934639 
	C978.914978,91.815880 980.238831,92.743843 980.047729,95.895088 
	C979.836426,99.380653 980.012878,102.889740 980.020386,106.868683 
M937.609070,136.147705 
	C937.089355,135.551285 936.584473,134.451584 936.047729,134.435745 
	C930.248413,134.264511 924.436890,134.112137 918.648987,134.384720 
	C917.808838,134.424255 916.482727,136.683762 916.399780,137.981140 
	C916.114136,142.447144 916.415649,146.947754 916.227234,151.423965 
	C916.098572,154.482407 917.414062,155.652786 920.303772,155.623810 
	C924.787354,155.578827 929.275818,155.495178 933.754272,155.653488 
	C936.845093,155.762756 937.853638,154.416840 937.769348,151.487274 
	C937.630859,146.674973 937.723450,141.856003 937.609070,136.147705 
M958.987183,153.760742 
	C959.693787,154.328369 960.387146,155.367996 961.109192,155.388214 
	C966.415649,155.536880 971.737061,155.645599 977.030212,155.348526 
	C978.053894,155.291061 979.737976,153.446442 979.810608,152.340393 
	C980.125610,147.543106 979.885254,142.712479 979.990540,137.897110 
	C980.052246,135.073639 978.761536,134.071335 976.065186,134.132294 
	C971.582092,134.233688 967.091309,134.274811 962.611023,134.125687 
	C959.774597,134.031296 958.764160,135.202866 958.828613,137.942184 
	C958.945801,142.921722 958.876648,147.905655 958.987183,153.760742 
z"/>
<path fill="#FBFBFB" opacity="1.000000" stroke="none" 
	d="
M748.000000,286.041870 
	C780.124817,286.041870 811.749573,286.041870 843.665649,286.041870 
	C843.665649,290.707031 843.665649,295.093872 843.665649,299.727905 
	C742.690186,299.727905 641.810364,299.727905 540.595825,299.727905 
	C540.595825,295.302734 540.595825,290.917084 540.595825,286.041870 
	C609.669067,286.041870 678.584534,286.041870 748.000000,286.041870 
z"/>
<path fill="#FBFBFB" opacity="1.000000" stroke="none" 
	d="
M1259.000000,299.960693 
	C1225.209106,299.960693 1191.918213,299.960693 1158.335083,299.960693 
	C1158.335083,295.298309 1158.335083,290.911377 1158.335083,286.276062 
	C1259.308105,286.276062 1360.187988,286.276062 1461.403442,286.276062 
	C1461.403442,290.694794 1461.403442,295.079407 1461.403442,299.960693 
	C1393.998779,299.960693 1326.749390,299.960693 1259.000000,299.960693 
z"/>
<path fill="#060606" opacity="1.000000" stroke="none" 
	d="
M690.545654,413.737183 
	C691.470764,406.604156 696.399475,401.187317 703.130859,401.036224 
	C717.892639,400.704895 732.670471,400.777618 747.435120,401.048492 
	C752.771606,401.146393 758.458984,406.882599 758.932434,412.259247 
	C759.543579,419.199432 759.846863,426.182007 759.927368,433.150391 
	C760.077454,446.136932 760.122131,459.128967 759.904663,472.113586 
	C759.802490,478.211365 759.698669,484.602234 753.799927,488.615417 
	C752.100525,489.771637 750.127563,491.284698 748.259216,491.314087 
	C732.816101,491.557129 717.362976,491.723969 701.924255,491.389404 
	C696.511353,491.272125 691.134888,485.531006 690.857666,479.993591 
	C690.276062,468.375610 690.065308,456.732178 689.998169,445.097443 
	C689.938599,434.786255 690.279358,424.472778 690.545654,413.737183 
M725.499146,411.887024 
	C717.919922,412.067383 710.340637,412.247742 703.120300,412.419525 
	C702.610901,413.928894 702.316162,414.399139 702.312317,414.871735 
	C702.152771,434.472656 702.017273,454.073761 701.893555,473.674927 
	C701.890442,474.165710 702.064636,474.655823 702.135376,475.149200 
	C702.583374,478.275116 703.835205,480.148407 707.535583,480.128998 
	C717.999268,480.074036 728.470947,480.627808 738.927307,480.394531 
	C747.125732,480.211639 748.022705,478.920349 748.041992,470.548096 
	C748.079102,454.417450 748.106689,438.286316 748.001343,422.156250 
	C747.981262,419.085999 747.328979,416.019806 746.843201,411.887024 
	C739.733215,411.887024 733.115479,411.887024 725.499146,411.887024 
z"/>
<path fill="#060606" opacity="1.000000" stroke="none" 
	d="
M848.000000,399.952820 
	C856.475830,400.252350 864.461731,400.396393 872.423645,400.911133 
	C877.024109,401.208527 884.223633,407.532806 884.777527,412.182281 
	C885.581543,418.931091 886.336182,425.838348 885.737854,432.555634 
	C885.216614,438.407440 883.106323,444.261047 875.994934,446.001709 
	C874.272217,446.423401 872.719238,447.538605 870.617310,448.564819 
	C872.521179,449.364868 873.977417,450.036316 875.475281,450.596405 
	C883.612671,453.639252 886.915466,458.365784 886.936584,467.142944 
	C886.956604,475.432526 886.940857,483.722137 886.940857,492.240173 
	C882.894470,492.240173 879.282532,492.240173 874.993652,492.240173 
	C874.993652,484.459045 874.753479,476.702728 875.053162,468.967377 
	C875.446777,458.809448 871.643311,455.557434 860.895630,455.192200 
	C852.926208,454.921356 844.940125,455.138885 836.359131,455.138885 
	C836.359131,467.629181 836.359131,479.854034 836.359131,492.270386 
	C832.145203,492.270386 828.536072,492.270386 824.590088,492.270386 
	C824.590088,461.544342 824.590088,431.003754 824.590088,399.952820 
	C832.272278,399.952820 839.886108,399.952820 848.000000,399.952820 
M864.031372,411.886780 
	C854.935730,411.886780 845.840027,411.886780 836.623108,411.886780 
	C836.623108,422.519958 836.623108,432.701721 836.623108,443.117981 
	C845.928650,443.117981 854.893066,443.256683 863.850647,443.069611 
	C869.909302,442.943085 873.568054,439.274475 874.002808,433.244720 
	C874.217346,430.269348 874.078613,427.267242 874.070557,424.277283 
	C874.045288,414.919434 874.039917,414.919434 864.031372,411.886780 
z"/>
<path fill="#040404" opacity="1.000000" stroke="none" 
	d="
M482.270020,400.681305 
	C484.961060,401.080322 487.214386,401.405182 489.810394,401.779419 
	C488.891815,405.974518 488.085571,409.656555 487.453461,412.543488 
	C475.011505,412.318634 462.968079,411.745331 450.941132,411.987793 
	C439.825043,412.211853 439.645996,412.281860 439.313965,423.625092 
	C438.855652,439.281799 439.410095,439.500305 454.816742,439.558899 
	C461.974213,439.586121 469.148285,440.179413 476.283752,439.847626 
	C485.809692,439.404663 492.776855,445.991943 492.863129,456.158569 
	C492.934875,464.618103 492.456146,473.094727 491.891083,481.541656 
	C491.638000,485.324768 485.778900,490.860077 481.833527,491.310303 
	C464.914093,493.240967 448.008087,493.091888 430.830536,490.880585 
	C431.747192,486.844971 432.583252,483.164124 433.352692,479.776733 
	C444.645569,480.034821 455.709595,480.331573 466.775543,480.510101 
	C469.592834,480.555542 472.425476,480.005371 475.234436,480.123535 
	C478.848297,480.275604 480.626831,478.446350 480.649567,475.199982 
	C480.695892,468.583374 480.576202,461.949280 480.054474,455.359619 
	C479.957214,454.130890 477.815491,452.442719 476.341614,452.076782 
	C473.480560,451.366455 470.428040,451.317352 467.447418,451.219360 
	C458.799652,450.934906 450.110504,451.186462 441.509064,450.422729 
	C433.310333,449.694763 428.759552,444.883972 428.133301,436.649078 
	C427.605377,429.706848 427.538696,422.665527 428.042725,415.724304 
	C428.738373,406.144073 432.935608,401.426941 442.470184,400.904999 
	C455.557098,400.188568 468.708557,400.650269 482.270020,400.681305 
z"/>
<path fill="#040404" opacity="1.000000" stroke="none" 
	d="
M1129.977661,411.883545 
	C1121.682373,412.163300 1113.870239,412.280670 1106.094727,412.874268 
	C1104.713989,412.979645 1102.440186,414.999420 1102.361450,416.247711 
	C1101.967163,422.496185 1101.913818,428.799835 1102.353394,435.040955 
	C1102.450439,436.420319 1104.834473,438.203094 1106.513184,438.769196 
	C1108.805542,439.542267 1111.427979,439.451782 1113.914307,439.514069 
	C1122.402100,439.726746 1130.901855,439.642426 1139.378662,440.052338 
	C1148.650391,440.500702 1153.719849,444.486603 1154.418701,453.700500 
	C1155.142700,463.242523 1154.889404,473.016235 1153.583740,482.484497 
	C1152.981812,486.849030 1148.784790,490.815430 1143.436646,491.396912 
	C1126.681030,493.218658 1109.939209,493.063568 1092.910889,490.901062 
	C1093.839844,486.844635 1094.681152,483.170929 1095.489136,479.642975 
	C1104.749146,479.946259 1113.808228,480.363708 1122.871338,480.492950 
	C1128.019043,480.566406 1133.206909,480.441528 1138.304077,479.814880 
	C1139.824097,479.628052 1142.212891,477.508850 1142.296387,476.157074 
	C1142.714478,469.398712 1142.573242,462.599976 1142.468872,455.817871 
	C1142.426392,453.047668 1140.809937,451.861877 1137.948975,451.826355 
	C1130.639160,451.735718 1123.330811,451.453033 1116.024414,451.183441 
	C1111.871094,451.030243 1107.686279,451.022003 1103.579346,450.472168 
	C1095.548462,449.396881 1090.821167,444.762878 1090.195801,436.668732 
	C1089.659058,429.721710 1089.623535,422.676544 1090.100342,415.725098 
	C1090.750610,406.243225 1095.020020,401.276031 1104.532837,400.921173 
	C1119.446289,400.364807 1134.408081,401.086884 1149.348633,401.312775 
	C1150.116089,401.324402 1150.876831,401.761414 1151.849121,402.065582 
	C1150.986816,405.974335 1150.176025,409.649048 1149.383667,413.240784 
	C1142.901245,412.775513 1136.687256,412.329529 1129.977661,411.883545 
z"/>
<path fill="#060606" opacity="1.000000" stroke="none" 
	d="
M326.006683,411.886902 
	C321.522461,411.886902 317.537292,411.886902 313.215515,411.886902 
	C313.215515,421.280731 313.215515,430.511383 313.215515,440.323761 
	C325.326660,440.323761 337.532379,440.323761 349.924194,440.323761 
	C349.924194,444.487854 349.924194,448.073822 349.924194,452.025940 
	C337.651581,452.025940 325.562439,452.025940 313.178162,452.025940 
	C313.178162,461.614532 313.178162,470.841187 313.178162,480.395142 
	C327.721619,480.395142 342.155457,480.395142 356.989136,480.395142 
	C356.989136,484.419678 356.989136,488.131134 356.989136,492.166321 
	C338.498444,492.166321 319.948822,492.166321 301.240265,492.166321 
	C301.240265,461.485077 301.240265,431.043213 301.240265,400.276672 
	C319.355591,400.276672 337.400543,400.276672 355.688843,400.276672 
	C355.688843,403.929962 355.688843,407.533295 355.688843,411.886902 
	C346.012085,411.886902 336.258911,411.886902 326.006683,411.886902 
z"/>
<path fill="#050505" opacity="1.000000" stroke="none" 
	d="
M574.914246,484.870148 
	C574.914246,487.509613 574.914246,489.666504 574.914246,492.146301 
	C570.967834,492.146301 567.238342,492.146301 563.312012,492.146301 
	C563.312012,461.501434 563.312012,431.084534 563.312012,400.299194 
	C564.539612,400.187378 565.800354,399.950592 567.055603,399.976746 
	C582.349121,400.295227 597.645874,400.537781 612.932495,401.068420 
	C617.600220,401.230438 623.785767,407.044006 623.904541,411.662567 
	C624.215393,423.748627 624.174744,435.851196 623.927246,447.940094 
	C623.841492,452.127747 618.150940,457.862305 613.945496,458.262695 
	C607.168884,458.907898 600.351929,459.214844 593.544556,459.424255 
	C587.559814,459.608368 581.564941,459.462708 574.914246,459.462708 
	C574.914246,467.869904 574.914246,476.128754 574.914246,484.870148 
M582.603394,447.648254 
	C590.897888,447.445740 599.192383,447.104065 607.486816,447.107452 
	C610.926025,447.108856 612.463745,445.462036 612.503967,442.452393 
	C612.633850,432.741089 612.552307,423.026947 612.552307,412.600983 
	C599.537537,412.600983 587.379883,412.600983 575.101318,412.600983 
	C575.101318,423.991333 575.101318,435.563019 575.101318,447.648285 
	C577.402283,447.648285 579.518311,447.648285 582.603394,447.648254 
z"/>
<path fill="#060606" opacity="1.000000" stroke="none" 
	d="
M981.000000,399.953003 
	C995.143127,399.953003 1008.786255,399.953003 1022.717224,399.953003 
	C1022.717224,403.898743 1022.717224,407.627960 1022.717224,411.755310 
	C1014.240662,411.755310 1005.818359,411.755310 996.952148,411.755310 
	C996.952148,438.710510 996.952148,465.279175 996.952148,492.159119 
	C992.756958,492.159119 989.008118,492.159119 984.789124,492.159119 
	C984.789124,465.463684 984.789124,438.887115 984.789124,411.968201 
	C975.882141,411.968201 967.434692,411.968201 958.619141,411.968201 
	C958.619141,407.913879 958.619141,404.200836 958.619141,399.953003 
	C965.942627,399.953003 973.221313,399.953003 981.000000,399.953003 
z"/>
<path fill="#040404" opacity="1.000000" stroke="none" 
	d="
M1532.726562,400.617981 
	C1547.603516,400.715881 1562.095337,400.300232 1576.445923,401.531464 
	C1579.923828,401.829895 1583.700195,407.116669 1585.912598,410.936096 
	C1587.590820,413.833405 1587.338135,418.039978 1587.367798,421.668671 
	C1587.504395,438.312164 1587.548462,454.958435 1587.387085,471.601379 
	C1587.326294,477.871521 1587.305786,484.424133 1581.286621,488.603180 
	C1579.601562,489.772980 1577.625977,491.280548 1575.760010,491.314026 
	C1560.487549,491.587891 1545.203491,491.813293 1529.935913,491.475006 
	C1523.903442,491.341400 1518.258423,485.460663 1518.174805,479.469666 
	C1517.873657,457.867889 1517.680908,436.254791 1518.083496,414.657806 
	C1518.245239,405.979279 1523.499268,401.616852 1532.726562,400.617981 
M1529.028320,427.541229 
	C1529.028198,441.516724 1528.985352,455.492493 1529.071045,469.467438 
	C1529.085083,471.756561 1529.215088,474.246216 1530.129517,476.263428 
	C1530.833862,477.817444 1532.809814,479.775757 1534.293579,479.838959 
	C1545.081299,480.298523 1555.894775,480.633026 1566.685547,480.381317 
	C1574.503174,480.198944 1575.593872,478.601105 1575.629517,470.286346 
	C1575.689453,456.311096 1575.686890,442.335266 1575.619629,428.360077 
	C1575.601318,424.548706 1575.146484,420.740173 1575.101685,416.927887 
	C1575.068848,414.129150 1574.038940,412.529053 1571.096436,412.528656 
	C1557.538696,412.526733 1543.981079,412.527802 1529.753906,412.527802 
	C1529.485962,417.710236 1529.257324,422.134247 1529.028320,427.541229 
z"/>
<path fill="#050505" opacity="1.000000" stroke="none" 
	d="
M1292.987183,480.538300 
	C1296.140259,480.432312 1298.814941,480.074463 1301.447388,480.274170 
	C1306.489746,480.656708 1308.417236,477.830811 1308.455566,473.495911 
	C1308.508057,467.536102 1308.190918,461.567993 1307.868774,455.612274 
	C1307.735718,453.150787 1306.374146,451.900360 1303.647827,451.866577 
	C1296.176880,451.773987 1288.705322,451.517609 1281.241089,451.171722 
	C1276.098999,450.933441 1270.519531,451.552490 1265.970215,449.718109 
	C1262.057007,448.140289 1257.013184,443.949463 1256.519043,440.357056 
	C1255.201294,430.774323 1255.252319,420.788086 1256.477783,411.181396 
	C1256.940186,407.555450 1261.733398,402.210876 1265.219360,401.626129 
	C1282.299316,398.761047 1299.574097,399.189667 1317.311523,401.610443 
	C1316.362549,405.938660 1315.527100,409.749207 1314.895752,412.629028 
	C1301.983521,412.374542 1289.568359,411.666077 1277.185303,412.035461 
	C1267.619995,412.320801 1267.502563,412.167938 1266.963257,422.370361 
	C1266.745972,426.482208 1267.396851,430.637054 1267.598389,434.774994 
	C1267.739380,437.670441 1269.451538,438.825348 1272.089233,438.938171 
	C1277.401733,439.165466 1282.715454,439.373169 1288.030396,439.528931 
	C1292.852173,439.670258 1297.685303,439.969238 1302.497314,439.782410 
	C1314.805542,439.304626 1320.189087,446.265411 1320.565552,457.839569 
	C1320.775757,464.303955 1320.655396,470.830627 1320.000854,477.259644 
	C1319.001465,487.076385 1314.508667,491.601807 1304.701782,491.872498 
	C1289.457520,492.293304 1274.192993,491.983704 1258.120239,491.983704 
	C1259.279175,486.804504 1260.125000,483.024170 1260.863647,479.722992 
	C1271.646118,480.000946 1282.067871,480.269623 1292.987183,480.538300 
z"/>
<path fill="#030303" opacity="1.000000" stroke="none" 
	d="
M1420.000000,450.925537 
	C1412.200073,450.925537 1404.900146,450.925537 1397.163208,450.925537 
	C1397.163208,464.786896 1397.163208,478.358734 1397.163208,492.188293 
	C1393.015381,492.188293 1389.307129,492.188293 1385.373291,492.188293 
	C1385.373291,461.518219 1385.373291,431.102539 1385.373291,400.320557 
	C1389.052246,400.320557 1392.770752,400.320557 1396.892090,400.320557 
	C1396.892090,412.921082 1396.892090,425.659698 1396.892090,438.714813 
	C1412.514526,438.714813 1427.750488,438.714813 1443.378174,438.714813 
	C1443.378174,426.081726 1443.378174,413.335144 1443.378174,400.274902 
	C1447.339111,400.274902 1450.919434,400.274902 1454.837402,400.274902 
	C1454.837402,430.669800 1454.837402,461.203613 1454.837402,492.098389 
	C1451.405518,492.098389 1447.861694,492.098389 1443.797363,492.098389 
	C1443.797363,478.604156 1443.797363,465.045593 1443.797363,450.925537 
	C1435.697266,450.925537 1428.098633,450.925537 1420.000000,450.925537 
z"/>
<path fill="#030303" opacity="1.000000" stroke="none" 
	d="
M1711.569580,404.371460 
	C1715.124390,406.858246 1716.721802,410.141785 1716.720337,413.925629 
	C1716.716187,425.210876 1716.734253,436.510132 1716.167358,447.774933 
	C1715.905273,452.983337 1710.247192,458.200684 1704.923096,458.516510 
	C1694.964478,459.107239 1684.974976,459.180847 1674.997437,459.438782 
	C1672.530884,459.502533 1670.061157,459.448242 1667.138428,459.448242 
	C1667.138428,470.643890 1667.138428,481.378235 1667.138428,492.278259 
	C1663.228394,492.278259 1659.785767,492.278259 1655.942139,492.278259 
	C1655.942139,461.686249 1655.942139,431.137024 1655.942139,399.959930 
	C1659.280762,399.959930 1662.882568,399.888855 1666.480591,399.972687 
	C1679.279663,400.270966 1692.083984,400.482758 1704.869385,401.087067 
	C1707.057739,401.190552 1709.162720,403.055206 1711.569580,404.371460 
M1705.373779,433.459839 
	C1705.248169,427.978424 1705.055054,422.497406 1705.022949,417.015442 
	C1705.005005,413.943176 1703.571167,412.429047 1700.575684,412.422211 
	C1689.517212,412.396942 1678.458740,412.412170 1667.353760,412.412170 
	C1667.353760,424.044678 1667.353760,435.600647 1667.353760,447.657684 
	C1675.714966,447.657684 1683.833008,447.896790 1691.931763,447.603638 
	C1705.258057,447.121246 1705.030396,448.223175 1705.373779,433.459839 
z"/>
<path fill="#150102" opacity="1.000000" stroke="none" 
	d="
M937.663818,136.593781 
	C937.723450,141.856003 937.630859,146.674973 937.769348,151.487274 
	C937.853638,154.416840 936.845093,155.762756 933.754272,155.653488 
	C929.275818,155.495178 924.787354,155.578827 920.303772,155.623810 
	C917.414062,155.652786 916.098572,154.482407 916.227234,151.423965 
	C916.415649,146.947754 916.114136,142.447144 916.399780,137.981140 
	C916.482727,136.683762 917.808838,134.424255 918.648987,134.384720 
	C924.436890,134.112137 930.248413,134.264511 936.047729,134.435745 
	C936.584473,134.451584 937.089355,135.551285 937.663818,136.593781 
z"/>
<path fill="#0F0000" opacity="1.000000" stroke="none" 
	d="
M958.936157,153.324249 
	C958.876648,147.905655 958.945801,142.921722 958.828613,137.942184 
	C958.764160,135.202866 959.774597,134.031296 962.611023,134.125687 
	C967.091309,134.274811 971.582092,134.233688 976.065186,134.132294 
	C978.761536,134.071335 980.052246,135.073639 979.990540,137.897110 
	C979.885254,142.712479 980.125610,147.543106 979.810608,152.340393 
	C979.737976,153.446442 978.053894,155.291061 977.030212,155.348526 
	C971.737061,155.645599 966.415649,155.536880 961.109192,155.388214 
	C960.387146,155.367996 959.693787,154.328369 958.936157,153.324249 
z"/>
<path fill="#FCFCFC" opacity="1.000000" stroke="none" 
	d="
M725.998413,411.887024 
	C733.115479,411.887024 739.733215,411.887024 746.843201,411.887024 
	C747.328979,416.019806 747.981262,419.085999 748.001343,422.156250 
	C748.106689,438.286316 748.079102,454.417450 748.041992,470.548096 
	C748.022705,478.920349 747.125732,480.211639 738.927307,480.394531 
	C728.470947,480.627808 717.999268,480.074036 707.535583,480.128998 
	C703.835205,480.148407 702.583374,478.275116 702.135376,475.149200 
	C702.064636,474.655823 701.890442,474.165710 701.893555,473.674927 
	C702.017273,454.073761 702.152771,434.472656 702.312317,414.871735 
	C702.316162,414.399139 702.610901,413.928894 703.120300,412.419525 
	C710.340637,412.247742 717.919922,412.067383 725.998413,411.887024 
z"/>
<path fill="#FBFBFB" opacity="1.000000" stroke="none" 
	d="
M864.478088,411.904083 
	C874.039917,414.919434 874.045288,414.919434 874.070557,424.277283 
	C874.078613,427.267242 874.217346,430.269348 874.002808,433.244720 
	C873.568054,439.274475 869.909302,442.943085 863.850647,443.069611 
	C854.893066,443.256683 845.928650,443.117981 836.623108,443.117981 
	C836.623108,432.701721 836.623108,422.519958 836.623108,411.886780 
	C845.840027,411.886780 854.935730,411.886780 864.478088,411.904083 
z"/>
<path fill="#FBFBFB" opacity="1.000000" stroke="none" 
	d="
M582.118896,447.648254 
	C579.518311,447.648285 577.402283,447.648285 575.101318,447.648285 
	C575.101318,435.563019 575.101318,423.991333 575.101318,412.600983 
	C587.379883,412.600983 599.537537,412.600983 612.552307,412.600983 
	C612.552307,423.026947 612.633850,432.741089 612.503967,442.452393 
	C612.463745,445.462036 610.926025,447.108856 607.486816,447.107452 
	C599.192383,447.104065 590.897888,447.445740 582.118896,447.648254 
z"/>
<path fill="#FAFAFA" opacity="1.000000" stroke="none" 
	d="
M1529.028564,427.049744 
	C1529.257324,422.134247 1529.485962,417.710236 1529.753906,412.527802 
	C1543.981079,412.527802 1557.538696,412.526733 1571.096436,412.528656 
	C1574.038940,412.529053 1575.068848,414.129150 1575.101685,416.927887 
	C1575.146484,420.740173 1575.601318,424.548706 1575.619629,428.360077 
	C1575.686890,442.335266 1575.689453,456.311096 1575.629517,470.286346 
	C1575.593872,478.601105 1574.503174,480.198944 1566.685547,480.381317 
	C1555.894775,480.633026 1545.081299,480.298523 1534.293579,479.838959 
	C1532.809814,479.775757 1530.833862,477.817444 1530.129517,476.263428 
	C1529.215088,474.246216 1529.085083,471.756561 1529.071045,469.467438 
	C1528.985352,455.492493 1529.028198,441.516724 1529.028564,427.049744 
z"/>
<path fill="#FAFAFA" opacity="1.000000" stroke="none" 
	d="
M1705.373291,433.950470 
	C1705.030396,448.223175 1705.258057,447.121246 1691.931763,447.603638 
	C1683.833008,447.896790 1675.714966,447.657684 1667.353760,447.657684 
	C1667.353760,435.600647 1667.353760,424.044678 1667.353760,412.412170 
	C1678.458740,412.412170 1689.517212,412.396942 1700.575684,412.422211 
	C1703.571167,412.429047 1705.005005,413.943176 1705.022949,417.015442 
	C1705.055054,422.497406 1705.248169,427.978424 1705.373291,433.950470 
z"/>
</svg>